<svg id="Layer_1" data-name="Layer 1" xmlns="http://www.w3.org/2000/svg" viewBox="0 0 45 38.1983"><defs><style>.cls-1{fill:#cbadd2;fill-rule:evenodd;}</style></defs><title>runnable-icon-pink</title><path id="logomark" class="cls-1" d="M41.1524,40.7019l-36.2936,1.89C2.1911,42.73,0,40.92,0,38.5459V11.8933l45,1.4059V36.7236A4.0552,4.0552,0,0,1,41.1524,40.7019ZM29.29,24.4759l-6.0118-5.6813a2.3049,2.3049,0,0,0-3.0857-.0417,1.9209,1.9209,0,0,0,0,2.8745l4.6082,4.28L20.1921,30.251a1.9209,1.9209,0,0,0,0,2.8745,2.3065,2.3065,0,0,0,3.0857-.0847l6.0118-5.765A1.9106,1.9106,0,0,0,29.29,24.4759ZM0,8.4543C0,6.08,2.1911,4.27,4.8588,4.4083l36.2936,1.89A4.0553,4.0553,0,0,1,45,10.2767v1.5112L0,10.1739v-1.72Zm12.3742-.1221a0.6919,0.6919,0,0,0,.6888.6511l1.37,0.0554a0.6208,0.6208,0,0,0,.6809-0.5909V7.2105A0.6907,0.6907,0,0,0,14.4326,6.56l-1.37-.065a0.6225,0.6225,0,0,0-.6888.5909V8.3321Zm-4.66-.1969a0.7067,0.7067,0,0,0,.7067.66L9.8257,8.8523a0.6342,0.6342,0,0,0,.6987-0.5985V7.0008a0.7046,0.7046,0,0,0-.6987-0.66L8.42,6.2743a0.6358,0.6358,0,0,0-.7067.5981V8.1353Zm-4.783-.202a0.7214,0.7214,0,0,0,.7252.669L5.0985,8.6606a0.6475,0.6475,0,0,0,.717-0.6056V6.7856a0.72,0.72,0,0,0-.717-0.6688L3.6559,6.0486a0.6489,0.6489,0,0,0-.7252.6052v1.28Z" transform="translate(0 -4.4009)"/></svg>