<svg id="Layer_1" xmlns="http://www.w3.org/2000/svg" viewBox="0 0 45 38.2"><style>.st0{fill:#ccc}</style><title>runnable-icon-pink</title><path id="logomark" class="st0" d="M41.2 36.3L4.9 38.2c-2.7.1-4.9-1.7-4.9-4V7.5l45 1.4v23.4c0 2.2-1.7 3.9-3.8 4zM29.3 20.1l-6-5.7c-.9-.8-2.2-.8-3.1 0-.8.7-.9 1.9-.2 2.7l.2.2 4.6 4.3-4.6 4.3c-.8.7-.9 1.9-.2 2.7l.2.2c.9.8 2.2.7 3.1-.1l6-5.8c.8-.7.8-2 0-2.8.1 0 0 0 0 0zM0 4.1C0 1.7 2.2-.1 4.9.1L41.2 2C43.3 2 45 3.7 45 5.9v1.5L0 5.8V4.1zm12.4-.2c0 .4.3.7.7.7l1.4.1c.3 0 .6-.2.7-.6V2.8c0-.4-.3-.6-.7-.7L13.1 2c-.3 0-.6.2-.7.6v1.3zm-4.7-.2c0 .4.3.7.7.7l1.4.1c.3 0 .7-.2.7-.6V2.6c0-.4-.3-.7-.7-.7H8.4c-.3 0-.7.2-.7.6v1.2zm-4.8-.2c0 .4.3.7.7.7l1.4.1c.4 0 .7-.2.7-.6V2.4c0-.4-.3-.7-.7-.7l-1.3-.1c-.4 0-.7.3-.8.6v1.3z"/></svg>