<svg id="Layer_1" data-name="Layer 1" xmlns="http://www.w3.org/2000/svg" viewBox="0 0 300 90"><title>onwhitecmykArtboard 1</title><path d="M268.716,57.175l-.358-1.432h.213l.706-5.067c.05-.362.086-.748.108-1.185v-.006q.012-.246.024-.5l.016-.325v-.009c.018-.371.027-.734.027-1.077v-.619a17.87,17.87,0,0,0-.833-5.381,14.447,14.447,0,0,0-8.048-8.978,16.937,16.937,0,0,0-7-1.38,17.6,17.6,0,0,0-7.188,1.426c-.464.207-.909.431-1.362.674V23.889H225.743v8.574a13.006,13.006,0,0,0-5.716-1.246h-.075V23.889H200.585v9.035a15.02,15.02,0,0,0-4.058-1.319,25.1,25.1,0,0,0-4.328-.388,31.284,31.284,0,0,0-5.826.523,27.371,27.371,0,0,0-5.562,1.7l-1.084.46a12.044,12.044,0,0,0-2.854-1.671h0a15.3,15.3,0,0,0-9.992-.284H150.5a15.492,15.492,0,0,0-4.721-.7,14.264,14.264,0,0,0-4.47.7H105.961a8.552,8.552,0,0,0-1.5-.4,12.333,12.333,0,0,0-2.334-.214,10.213,10.213,0,0,0-3.74.611H83.966a10.588,10.588,0,0,0-2.909-5.951,10.8,10.8,0,0,0-7.226-3.311L41.949,21.015C41.74,21,41.529,21,41.321,21a11.609,11.609,0,0,0-7.64,2.813A10.638,10.638,0,0,0,30,31.791V58.207a10.641,10.641,0,0,0,3.682,7.984,11.583,11.583,0,0,0,7.629,2.814c.208,0,.425,0,.633-.016L73.817,67.33a10.84,10.84,0,0,0,9.937-8.172v6.088H103.12v-4.77a5.584,5.584,0,0,0,.818,1.15h-.008a11.328,11.328,0,0,0,4.343,3.224,14.817,14.817,0,0,0,9.859.392H184.3v-.066a13.321,13.321,0,0,0,4.207.67,14.86,14.86,0,0,0,6.261-1.238,11.432,11.432,0,0,0,4.868,1,21.117,21.117,0,0,0,3.056-.222h0V65.4a7.811,7.811,0,0,1,1.066-.158h10.487a14.077,14.077,0,0,0,4.281.66,14.675,14.675,0,0,0,7.213-1.765v1.105h19.276V63.611a17.933,17.933,0,0,0,3.212,1.322,22.881,22.881,0,0,0,6.691.956,28.8,28.8,0,0,0,5.616-.533,30,30,0,0,0,4.5-1.225L270,62.3Z" fill="#612e80"/><path d="M73.456,60.1,41.6,61.759a3.808,3.808,0,0,1-4.243-3.316q-.014-.118-.022-.236V34.81l39.5,1.234V56.608A3.56,3.56,0,0,1,73.456,60.1ZM63.042,45.856l-5.278-4.987a2.023,2.023,0,0,0-2.709-.037,1.686,1.686,0,0,0,0,2.523L59.1,47.112l-4.045,3.813a1.686,1.686,0,0,0,0,2.523,2.025,2.025,0,0,0,2.709-.074l5.278-5.061a1.677,1.677,0,0,0,.087-2.37Q63.087,45.9,63.042,45.856ZM37.33,31.791a3.808,3.808,0,0,1,4.028-3.574q.121.007.242.022L73.456,29.9a3.56,3.56,0,0,1,3.378,3.492v1.327L37.33,33.3Zm10.863-.107a.607.607,0,0,0,.6.572L50,32.3a.545.545,0,0,0,.6-.487l0-.032V30.7a.606.606,0,0,0-.6-.571l-1.2-.057a.547.547,0,0,0-.6.491l0,.028ZM44.1,31.511a.62.62,0,0,0,.62.58l1.234.05a.557.557,0,0,0,.611-.5l0-.028v-1.1a.619.619,0,0,0-.613-.579l-1.234-.059a.558.558,0,0,0-.617.492l0,.033Zm-4.2-.177a.633.633,0,0,0,.637.587l1.266.051a.568.568,0,0,0,.627-.5l0-.029V30.326a.632.632,0,0,0-.629-.587l-1.266-.06a.57.57,0,0,0-.634.5l0,.033Z" fill="#ccaed3"/><path d="M239.164,29.8V59.328H231.6V29.8h7.562m-25.127,0V40.212a10.011,10.011,0,0,1,2.461-2.235A6.414,6.414,0,0,1,220,37.1a6.871,6.871,0,0,1,3.7.958,8.241,8.241,0,0,1,2.561,2.514,11.194,11.194,0,0,1,1.5,3.572,17.932,17.932,0,0,1,.48,4.171,16.586,16.586,0,0,1-.52,4.031,11.636,11.636,0,0,1-1.681,3.772,9.36,9.36,0,0,1-3.021,2.793,8.715,8.715,0,0,1-4.5,1.1,8.226,8.226,0,0,1-2.6-.438,5.516,5.516,0,0,1-2.08-1.158v.918h-7.4V29.8h7.6m2.721,25.023a2.765,2.765,0,0,0,1.781-.558,3.937,3.937,0,0,0,1.1-1.4,6.719,6.719,0,0,0,.56-1.836,11.718,11.718,0,0,0,.16-1.836,15.484,15.484,0,0,0-.12-1.836,7.188,7.188,0,0,0-.48-1.876A3.92,3.92,0,0,0,218.718,44a2.568,2.568,0,0,0-1.761-.6,2.652,2.652,0,0,0-1.2.259,3.35,3.35,0,0,0-.88.619,2.875,2.875,0,0,0-.72,1.018,3.788,3.788,0,0,0-.16,1.217v6.026a2.161,2.161,0,0,0,.66,1.656,3,3,0,0,0,2.1.618M253.568,37.1a11.088,11.088,0,0,1,4.581.858,8.9,8.9,0,0,1,3.1,2.235,8.755,8.755,0,0,1,1.76,3.153,11.942,11.942,0,0,1,.56,3.612v.619c0,.253-.007.519-.02.8s-.027.552-.04.818-.034.492-.06.678h-13.4v.279A3.916,3.916,0,0,0,251.61,53.4a7.154,7.154,0,0,0,4.481,1.217,11.794,11.794,0,0,0,2.981-.379,16.747,16.747,0,0,0,2.621-.9l1.32,5.268a24.456,24.456,0,0,1-3.621.978,22.769,22.769,0,0,1-4.461.419,16.89,16.89,0,0,1-4.962-.7,11.067,11.067,0,0,1-3.941-2.1,9.564,9.564,0,0,1-2.6-3.532,12.23,12.23,0,0,1-.94-4.968,13.715,13.715,0,0,1,.72-4.49,10.906,10.906,0,0,1,2.12-3.692,9.888,9.888,0,0,1,3.461-2.514,11.659,11.659,0,0,1,4.781-.918m-3.6,8.461h6.562a3.665,3.665,0,0,0-.68-2.654,2.931,2.931,0,0,0-2.52-1.137,3.353,3.353,0,0,0-1.621.359,2.842,2.842,0,0,0-1.04.938,3.921,3.921,0,0,0-.54,1.237,5.319,5.319,0,0,0-.16,1.257M192.191,37.1a19.026,19.026,0,0,1,3.3.3,8.8,8.8,0,0,1,3.1,1.157,6.838,6.838,0,0,1,2.3,2.355,7.475,7.475,0,0,1,.9,3.891v8.7a3.611,3.611,0,0,0,.12.958.612.612,0,0,0,.68.439,1.847,1.847,0,0,0,.44-.06,1.973,1.973,0,0,0,.4-.14l.28,4.51q-.8.2-1.88.359a15.137,15.137,0,0,1-2.2.159,5,5,0,0,1-2.92-.758,3.611,3.611,0,0,1-1.441-2,9.469,9.469,0,0,1-2.881,2.255,8.893,8.893,0,0,1-3.881.738,7.063,7.063,0,0,1-2.641-.479,6.259,6.259,0,0,1-2.081-1.337,5.883,5.883,0,0,1-1.36-2.055,7.01,7.01,0,0,1-.48-2.634,5.826,5.826,0,0,1,1.06-3.651,6.941,6.941,0,0,1,2.7-2.115,12.839,12.839,0,0,1,3.6-1,28.967,28.967,0,0,1,3.8-.26,3.9,3.9,0,0,0,1.08-.119q.4-.12.4-.678v-.8a2.4,2.4,0,0,0-.18-.918,1.852,1.852,0,0,0-.64-.778,3.6,3.6,0,0,0-1.24-.539,8.2,8.2,0,0,0-1.981-.2,9.872,9.872,0,0,0-3.241.5,12.341,12.341,0,0,0-2.52,1.177L183.1,38.849a21.361,21.361,0,0,1,4.361-1.337,25.239,25.239,0,0,1,4.721-.419m-.8,18.039a3.231,3.231,0,0,0,2.441-.958,2.891,2.891,0,0,0,.72-2.076v-1.67a2.965,2.965,0,0,0-.411-.027q-.11,0-.229.007-.36.021-.72.02a9.294,9.294,0,0,0-1.3.1,5.068,5.068,0,0,0-1.3.359,2.569,2.569,0,0,0-1,.758,2.01,2.01,0,0,0-.4,1.3,2.12,2.12,0,0,0,2.037,2.2q.082,0,.163,0M171.346,37.1a8.48,8.48,0,0,1,3.261.559,5.807,5.807,0,0,1,2.2,1.556,6.075,6.075,0,0,1,1.24,2.335,10.553,10.553,0,0,1,.38,2.893V59.328h-7.562V46.4a3.321,3.321,0,0,0-.636-2.215,2.539,2.539,0,0,0-2.027-.738,3.013,3.013,0,0,0-1.251.26,3.112,3.112,0,0,0-.934.619,2.793,2.793,0,0,0-.815,1.117,5.136,5.136,0,0,0-.139,1.357V59.328H157.5V37.777h6.922V40.81a10.916,10.916,0,0,1,2.921-2.694,7.446,7.446,0,0,1,4-1.017m-25.567,0a8.48,8.48,0,0,1,3.261.559,5.8,5.8,0,0,1,2.2,1.556,6.081,6.081,0,0,1,1.24,2.335,10.553,10.553,0,0,1,.38,2.893V59.328H145.3V46.4a3.32,3.32,0,0,0-.636-2.215,2.538,2.538,0,0,0-2.027-.738,3.015,3.015,0,0,0-1.251.26,3.11,3.11,0,0,0-.934.619,2.793,2.793,0,0,0-.815,1.117A5.134,5.134,0,0,0,139.5,46.8V59.328h-7.562V37.777h6.922V40.81a10.917,10.917,0,0,1,2.921-2.694,7.447,7.447,0,0,1,4-1.017m-43.652.08a6.428,6.428,0,0,1,1.22.12,7.126,7.126,0,0,1,1.06.279l-1.44,7.064a3.984,3.984,0,0,0-1.14-.579,4.12,4.12,0,0,0-1.3-.219,3.817,3.817,0,0,0-1.621.279,3.3,3.3,0,0,0-.9.6,1.911,1.911,0,0,0-.68,1.077,8.739,8.739,0,0,0-.12,1.636V59.328H89.644V43.365q0-.678-.02-1.5t-.06-1.6q-.04-.778-.08-1.457t-.04-1.038h6.922v3.12a14.856,14.856,0,0,1,1.04-1.377,7.98,7.98,0,0,1,1.24-1.177,5.938,5.938,0,0,1,1.54-.838,5.552,5.552,0,0,1,1.941-.319m25.087.6V59.328h-6.922V56.534a9.613,9.613,0,0,1-2.781,2.534,7.284,7.284,0,0,1-3.781.938,7.937,7.937,0,0,1-3.141-.559,5.486,5.486,0,0,1-2.121-1.556,6.357,6.357,0,0,1-1.2-2.335,10.526,10.526,0,0,1-.38-2.893V37.777h7.562v12.97q0,2.954,2.422,2.953a2.566,2.566,0,0,0,1.946-.838,3.042,3.042,0,0,0,.715-1.157,5.94,5.94,0,0,0,.119-1.357V37.777h7.562m37.769,8.6Z" fill="#fff"/><path d="M239.164,29.8V59.328H231.6V29.8h7.562m-25.127,0V40.212a10.011,10.011,0,0,1,2.461-2.235A6.414,6.414,0,0,1,220,37.1a6.871,6.871,0,0,1,3.7.958,8.241,8.241,0,0,1,2.561,2.514,11.194,11.194,0,0,1,1.5,3.572,17.932,17.932,0,0,1,.48,4.171,16.586,16.586,0,0,1-.52,4.031,11.636,11.636,0,0,1-1.681,3.772,9.36,9.36,0,0,1-3.021,2.793,8.715,8.715,0,0,1-4.5,1.1,8.226,8.226,0,0,1-2.6-.438,5.516,5.516,0,0,1-2.08-1.158v.918h-7.4V29.8h7.6m2.721,25.023a2.765,2.765,0,0,0,1.781-.558,3.937,3.937,0,0,0,1.1-1.4,6.719,6.719,0,0,0,.56-1.836,11.718,11.718,0,0,0,.16-1.836,15.484,15.484,0,0,0-.12-1.836,7.188,7.188,0,0,0-.48-1.876A3.92,3.92,0,0,0,218.718,44a2.568,2.568,0,0,0-1.761-.6,2.652,2.652,0,0,0-1.2.259,3.35,3.35,0,0,0-.88.619,2.875,2.875,0,0,0-.72,1.018,3.788,3.788,0,0,0-.16,1.217v6.026a2.161,2.161,0,0,0,.66,1.656,3,3,0,0,0,2.1.618M253.568,37.1a11.088,11.088,0,0,1,4.581.858,8.9,8.9,0,0,1,3.1,2.235,8.755,8.755,0,0,1,1.76,3.153,11.942,11.942,0,0,1,.56,3.612v.619c0,.253-.007.519-.02.8s-.027.552-.04.818-.034.492-.06.678h-13.4v.279A3.916,3.916,0,0,0,251.61,53.4a7.154,7.154,0,0,0,4.481,1.217,11.794,11.794,0,0,0,2.981-.379,16.747,16.747,0,0,0,2.621-.9l1.32,5.268a24.456,24.456,0,0,1-3.621.978,22.769,22.769,0,0,1-4.461.419,16.89,16.89,0,0,1-4.962-.7,11.067,11.067,0,0,1-3.941-2.1,9.564,9.564,0,0,1-2.6-3.532,12.23,12.23,0,0,1-.94-4.968,13.715,13.715,0,0,1,.72-4.49,10.906,10.906,0,0,1,2.12-3.692,9.888,9.888,0,0,1,3.461-2.514,11.659,11.659,0,0,1,4.781-.918m-3.6,8.461h6.562a3.665,3.665,0,0,0-.68-2.654,2.931,2.931,0,0,0-2.52-1.137,3.353,3.353,0,0,0-1.621.359,2.842,2.842,0,0,0-1.04.938,3.921,3.921,0,0,0-.54,1.237,5.319,5.319,0,0,0-.16,1.257M192.191,37.1a19.026,19.026,0,0,1,3.3.3,8.8,8.8,0,0,1,3.1,1.157,6.838,6.838,0,0,1,2.3,2.355,7.475,7.475,0,0,1,.9,3.891v8.7a3.611,3.611,0,0,0,.12.958.612.612,0,0,0,.68.439,1.847,1.847,0,0,0,.44-.06,1.973,1.973,0,0,0,.4-.14l.28,4.51q-.8.2-1.88.359a15.137,15.137,0,0,1-2.2.159,5,5,0,0,1-2.92-.758,3.611,3.611,0,0,1-1.441-2,9.469,9.469,0,0,1-2.881,2.255,8.893,8.893,0,0,1-3.881.738,7.063,7.063,0,0,1-2.641-.479,6.259,6.259,0,0,1-2.081-1.337,5.883,5.883,0,0,1-1.36-2.055,7.01,7.01,0,0,1-.48-2.634,5.826,5.826,0,0,1,1.06-3.651,6.941,6.941,0,0,1,2.7-2.115,12.839,12.839,0,0,1,3.6-1,28.967,28.967,0,0,1,3.8-.26,3.9,3.9,0,0,0,1.08-.119q.4-.12.4-.678v-.8a2.4,2.4,0,0,0-.18-.918,1.852,1.852,0,0,0-.64-.778,3.6,3.6,0,0,0-1.24-.539,8.2,8.2,0,0,0-1.981-.2,9.872,9.872,0,0,0-3.241.5,12.341,12.341,0,0,0-2.52,1.177L183.1,38.849a21.361,21.361,0,0,1,4.361-1.337,25.239,25.239,0,0,1,4.721-.419m-.8,18.039a3.231,3.231,0,0,0,2.441-.958,2.891,2.891,0,0,0,.72-2.076v-1.67a2.965,2.965,0,0,0-.411-.027q-.11,0-.229.007-.36.021-.72.02a9.294,9.294,0,0,0-1.3.1,5.068,5.068,0,0,0-1.3.359,2.569,2.569,0,0,0-1,.758,2.01,2.01,0,0,0-.4,1.3,2.12,2.12,0,0,0,2.037,2.2q.082,0,.163,0M171.346,37.1a8.48,8.48,0,0,1,3.261.559,5.807,5.807,0,0,1,2.2,1.556,6.075,6.075,0,0,1,1.24,2.335,10.553,10.553,0,0,1,.38,2.893V59.328h-7.562V46.4a3.321,3.321,0,0,0-.636-2.215,2.539,2.539,0,0,0-2.027-.738,3.013,3.013,0,0,0-1.251.26,3.112,3.112,0,0,0-.934.619,2.793,2.793,0,0,0-.815,1.117,5.136,5.136,0,0,0-.139,1.357V59.328H157.5V37.777h6.922V40.81a10.916,10.916,0,0,1,2.921-2.694,7.446,7.446,0,0,1,4-1.017m-25.567,0a8.48,8.48,0,0,1,3.261.559,5.8,5.8,0,0,1,2.2,1.556,6.081,6.081,0,0,1,1.24,2.335,10.553,10.553,0,0,1,.38,2.893V59.328H145.3V46.4a3.32,3.32,0,0,0-.636-2.215,2.538,2.538,0,0,0-2.027-.738,3.015,3.015,0,0,0-1.251.26,3.11,3.11,0,0,0-.934.619,2.793,2.793,0,0,0-.815,1.117A5.134,5.134,0,0,0,139.5,46.8V59.328h-7.562V37.777h6.922V40.81a10.917,10.917,0,0,1,2.921-2.694,7.447,7.447,0,0,1,4-1.017m-43.652.08a6.428,6.428,0,0,1,1.22.12,7.126,7.126,0,0,1,1.06.279l-1.44,7.064a3.984,3.984,0,0,0-1.14-.579,4.12,4.12,0,0,0-1.3-.219,3.817,3.817,0,0,0-1.621.279,3.3,3.3,0,0,0-.9.6,1.911,1.911,0,0,0-.68,1.077,8.739,8.739,0,0,0-.12,1.636V59.328H89.644V43.365q0-.678-.02-1.5t-.06-1.6q-.04-.778-.08-1.457t-.04-1.038h6.922v3.12a14.856,14.856,0,0,1,1.04-1.377,7.98,7.98,0,0,1,1.24-1.177,5.938,5.938,0,0,1,1.54-.838,5.552,5.552,0,0,1,1.941-.319m25.087.6V59.328h-6.922V56.534a9.613,9.613,0,0,1-2.781,2.534,7.284,7.284,0,0,1-3.781.938,7.937,7.937,0,0,1-3.141-.559,5.486,5.486,0,0,1-2.121-1.556,6.357,6.357,0,0,1-1.2-2.335,10.526,10.526,0,0,1-.38-2.893V37.777h7.562v12.97q0,2.954,2.422,2.953a2.566,2.566,0,0,0,1.946-.838,3.042,3.042,0,0,0,.715-1.157,5.94,5.94,0,0,0,.119-1.357V37.777h7.562m37.769,8.6Z" fill="#fff"/></svg>