<svg xmlns="http://www.w3.org/2000/svg" viewBox="0 0 60 60"><path fill="#8CC84B" d="M51.209 51.209C57.036 45.332 60 38.279 60 30s-2.964-15.332-8.791-21.21C45.332 2.964 38.279 0 30 0S14.668 2.964 8.79 8.79C2.964 14.668 0 21.721 0 30s2.964 15.332 8.79 21.209C14.668 57.087 21.721 60 30 60s15.332-2.913 21.209-8.791z"/><path d="M29.995 51.988a3.39 3.39 0 0 1-1.691-.452l-5.381-3.184c-.802-.449-.411-.608-.146-.7 1.072-.373 1.289-.459 2.433-1.107.119-.068.276-.041.401.03l4.133 2.454c.15.084.361.084.5 0l16.115-9.302a.507.507 0 0 0 .247-.435V20.694a.52.52 0 0 0-.25-.444l-16.108-9.293a.504.504 0 0 0-.496 0l-16.105 9.296a.52.52 0 0 0-.255.441v18.598a.49.49 0 0 0 .254.43l4.414 2.551c2.396 1.196 3.862-.215 3.862-1.631V22.281c0-.259.209-.464.468-.464h2.043c.256 0 .467.205.467.464v18.362c0 3.196-1.742 5.03-4.772 5.03-.931 0-1.665 0-3.712-1.007l-4.226-2.434a3.402 3.402 0 0 1-1.69-2.938v-18.6c0-1.209.646-2.336 1.691-2.938l16.115-9.312c1.019-.577 2.375-.577 3.387 0l16.113 9.312a3.404 3.404 0 0 1 1.694 2.938v18.598a3.408 3.408 0 0 1-1.694 2.938l-16.113 9.305a3.384 3.384 0 0 1-1.698.453zm4.977-12.813c-7.052 0-8.529-3.237-8.529-5.951 0-.259.208-.465.466-.465h2.083c.233 0 .426.169.463.394.314 2.121 1.252 3.193 5.517 3.193 3.395 0 4.84-.768 4.84-2.569 0-1.038-.409-1.809-5.686-2.327-4.409-.435-7.136-1.41-7.136-4.938 0-3.25 2.741-5.19 7.336-5.19 5.162 0 7.716 1.791 8.041 5.636a.471.471 0 0 1-.122.358.475.475 0 0 1-.341.149h-2.092a.464.464 0 0 1-.452-.364c-.502-2.231-1.722-2.944-5.033-2.944-3.707 0-4.138 1.292-4.138 2.258 0 1.172.508 1.513 5.513 2.176 4.953.656 7.304 1.582 7.304 5.064 0 3.51-2.927 5.52-8.034 5.52z" fill="#fff"/></svg>