<svg xmlns="http://www.w3.org/2000/svg" xmlns:xlink="http://www.w3.org/1999/xlink" viewBox="0 0 30 30"><defs><path id="a" d="M26.2 29H3.8C2.2 29 1 27.8 1 26.2V3.8C1 2.2 2.2 1 3.8 1h22.4C27.8 1 29 2.2 29 3.8v22.4c0 1.6-1.2 2.8-2.8 2.8z"/></defs><clipPath id="b"><use xlink:href="#a" overflow="visible"/></clipPath><g clip-path="url(#b)"><path fill="#70CADB" d="M-14.3 17.4c-2.6 0-4.9-1.6-5.7-4 0-.1-.1-.2-.1-.3-.9-3.2.8-6.4 4-7.5l50.2-16.8c.7-.2 1.2-.3 1.9-.3 2.7 0 5 1.6 5.9 4.1l.1.4c.9 3.3-1.4 6.3-4.2 7.2 0 0-.5.2-49.9 17.1-.8 0-1.6.1-2.2.1z"/><path fill="#E01765" d="M-5.9 42.2c-2.7 0-4.9-1.5-5.7-3.9 0-.1-.1-.2-.1-.3-.9-3.2.8-6.5 4-7.6l50.2-17c.7-.2 1.3-.4 2-.4 2.7 0 5 1.6 5.9 4.1l.1.3c.5 1.7.2 3.6-.7 5.1-.7 1.1-3 2.1-3 2.1L-3.7 42c-.8.1-1.6.2-2.2.2z"/><path fill="#E8A723" d="M35.9 42.3c-2.7 0-5-1.7-5.9-4.2L13.2-11.7l-.1-.3c-.9-3.2.8-6.4 4-7.6.7-.2 1.3-.3 2-.3.9 0 1.9.2 2.8.7 1.5.7 2.6 2 3.1 3.5L41.8 34l.1.2c.9 3.3-.8 6.6-3.9 7.7-.9.3-1.5.4-2.1.4z"/><path fill="#3EB890" d="M11 50.7c-2.7 0-5-1.7-5.9-4.2L-11.7-3.3c0-.1-.1-.2-.1-.3-.9-3.2.8-6.4 3.9-7.6.7-.2 1.3-.3 2-.3 2.7 0 5 1.7 5.9 4.2l16.8 49.7c0 .1.1.2.1.3.9 3.2-.8 6.5-4 7.6-.7.3-1.3.4-1.9.4z"/><path fill="#CC2027" d="M27.6 31.1L39.3 27l-3.9-11.3-11.6 4z"/><path fill="#361238" d="M2.7 39.5l11.7-4-3.9-11.4-11.6 4z"/><path fill="#65863A" d="M19.3 6.3c5.2-1.8 9.1-3.1 11.7-4L27.2-8.9 15.5-5l3.8 11.3z"/><path fill="#1A937D" d="M-5.6 14.8c4.3-1.5 8.2-2.8 11.7-4L2.3-.5-9.4 3.4l3.8 11.4z"/></g><path fill="#443642" d="M10.9 13.1c0-2 1.4-3.4 4-3.4 1.6 0 2.9.5 3.5 1 .1.1.3.3.2.6-.1.4-.4.8-.6 1.2-.1.2-.4.2-.5.1-.5-.3-1.3-.7-2.1-.7h-.6c-.7 0-1.2.3-1.4.7 0 .1-.1.2-.1.3 0 .7.9.9 2.1 1.1 2.1.4 3.6.9 3.6 3.1 0 1.9-1.5 3.5-4.3 3.5-1.9 0-3.2-.7-3.9-1.3 0 0-.3-.3-.2-.7.2-.5.5-.9.7-1.2.1-.2.5-.2.7-.1.6.4 1.6.9 2.7 1h.3c1 0 1.6-.4 1.6-1s-.8-.9-2.1-1.1c-1.9-.4-3.6-1-3.6-3.1"/></svg>