<svg xmlns="http://www.w3.org/2000/svg" viewBox="0 0 30 30"><circle fill="#6F81B9" cx="15" cy="15" r="15"/><path fill="#FFF" d="M9.5 11.9H5.7L4 20.3h2l.4-2.2h1.9c1.8.1 3.8-1.4 3.8-3.9-.1-1.4-.9-2.2-2.6-2.3zm-1.4 4.7H6.8l.5-3.1h1.4c.7 0 1.3.3 1.3.9-.2 1.7-1 2.1-1.9 2.2zM11.6 18.1l1.7-8.4h2l-.4 2.2h1.9c1.7.1 2.3.9 2.1 2l-.7 4.3H16l.7-3.9c.1-.5.1-.8-.6-.8h-1.6l-.9 4.7h-2zM23.5 11.9h-3.9L18 20.3h2l.4-2.2h1.9c1.8.1 3.8-1.4 3.8-3.9-.1-1.4-.9-2.2-2.6-2.3zM22 16.6h-1.3l.5-3.1h1.4c.7 0 1.3.3 1.3.9-.1 1.7-.9 2.1-1.9 2.2z"/></svg>