<svg xmlns="http://www.w3.org/2000/svg" viewBox="0 0 60 60"><circle fill="#3882BE" cx="30" cy="30" r="30"/><path fill="#fff" d="M34.071 27.201a4.07 4.07 0 0 0 4.071-4.071v-6.701s-.014-2.729-1.357-4.071C35.415 10.986 31.357 11 31.357 11h-6.786s-2.727.698-4.071 2.714c-1.37 2.055-1.357 5.428-1.357 5.428h10.178a.679.679 0 0 1 0 1.358H17.786S11 20.415 11 30l5.429 9.5v-5.513a6.786 6.786 0 0 1 6.786-6.786h10.856zm-10.56-10.179a1.654 1.654 0 1 1 0-3.308 1.654 1.654 0 0 1 0 3.308zm20.06 3.478v5.429a6.786 6.786 0 0 1-6.786 6.786H25.929a4.07 4.07 0 0 0-4.071 4.071v6.786s.014 2.729 1.357 4.071C24.585 49.014 27.286 49 27.286 49h8.143s2.727-.698 4.071-2.714c1.37-2.055 1.357-5.429 1.357-5.429H30.679a.679.679 0 0 1 0-1.358h11.536s6.786.085 6.786-9.5l-5.43-9.499zm-7.082 22.478a1.654 1.654 0 1 1 0 3.308 1.654 1.654 0 0 1 0-3.308z"/></svg>