<svg xmlns="http://www.w3.org/2000/svg" viewBox="0 0 152 152"><path fill="#D41F06" d="M129.7 129.7C144.5 114.8 152 97 152 76s-7.5-38.8-22.3-53.7C114.8 7.5 97 0 76 0S37.2 7.5 22.3 22.3C7.5 37.2 0 55 0 76s7.5 38.8 22.3 53.7C37.2 144.6 55 152 76 152s38.8-7.4 53.7-22.3z"/><path fill="#FFF" d="M114.2 114.2l.1.1-.1-.5 5.2-67.6-.1.1c.2-7.4-2.4-14.4-11.1-17.3 4.6 1.8 5.3 5.4 6.6 10.6l-24-3.7 23.6 19.3-1.3 2.4-29.6 2 9 35.6.1-.1.9.8 15.9 16.5H68.9c.9-.4 1.7-.9 2.6-1.4v.1c7.7-4.2 13.8-9.1 19.4-14.5l1.6-1.5-35-11.3 26.1-24.3L91 36l-.2-.1h-.1l14.1-7.8-25.2-.1-.3-.2-19.9 7.4C53.1 41 41 52.5 40.5 52.8c-.4.2-6.7 12.1-10.6 19.4l-.3.6-.7 1.4.1.3c-.9 2.7-1.7 7.7-1.7 16.8 0 4.1.4 8 .8 11.1.2 1.9.4 3.5.9 5 .3 1.5.5 2.4.5 2.4l.3-.1c3.8 8.7 12.4 9.1 16.9 9.3l67.6-4.6h.2l-.3-.2zm-80.1-25l-3.3 6.1c-.9-5.4-1.5-12-1-18.3l4.3 12.2zm12.8 29.4l-.1.1-1.6-3.7c-4-9.9-10.1-24.9-11-25.7v-.1l23-5.2.2-.2c0 .1-10.5 34.8-10.5 34.8zm66.2-12.7l-4.2-31.1 7.1-14.5-2.9 45.6z"/></svg>