<svg xmlns="http://www.w3.org/2000/svg" viewBox="0 0 30 30"><g fill="#205081"><path d="M23.2 16.8c0-.3-.3-.6-.6-.6-.1 0-.3 0-.4.2-1.5 1.4-4.1 2.6-7.2 2.6-3.1 0-5.6-1.3-7.2-2.6-.1-.1-.3-.1-.4-.1-.4 0-.6.3-.6.7 0 .3.2.5.3.7.9 1.3 3.7 3.5 7.9 3.5s6.9-2.3 7.8-3.6c.2-.2.4-.5.4-.8z"/><path d="M27.3 27.3c-1.1-.6-2.1-1.6-2.5-3-.1-.3 0-.5.2-.7 3.1-2.4 5-5.8 5-9.6 0-7.2-6.7-13-15-13S0 6.8 0 13.9c0 7.2 6.7 12.9 15 12.9 1.1 0 2.1-.1 3.2-.3.2 0 .5 0 .6.1 2.1 1.3 5.1 2.3 7.8 2.3.9 0 1.2-.5 1.2-1 0-.3-.2-.5-.5-.6zm-4-1.3c0 .1.1.1.1.2s-.1.1-.2.1c-.8 0-3.1-1.2-4.3-2.3-.2-.1-.4-.2-.7-.1-1 .2-2.1.3-3.2.3-6.9 0-12.5-4.6-12.5-10.3C2.5 8.3 8.1 3.6 15 3.6s12.5 4.6 12.5 10.3c0 3.4-2 6.4-5.1 8.3-.2.1-.4.4-.4.7 0 .6.6 2.1 1.3 3.1z"/></g></svg>