<svg xmlns="http://www.w3.org/2000/svg" viewBox="0 0 487 200"><switch><g><path fill="#443642" d="M183.82 92.425c0-11.853 8.642-20.13 24.348-20.13 9.582 0 17.424 3.06 21.672 6.058.607.428 1.693 1.466 1.042 3.396-.833 2.08-2.362 5.208-3.46 7.24-.637 1.182-2.267 1.028-3.102.605-3.027-1.533-7.99-4.13-12.549-4.606a26.593 26.593 0 0 0-3.476-.15c-4.017.09-7.371 1.484-8.553 4.547a5.36 5.36 0 0 0-.38 1.82c-.111 4.038 5.507 5.497 12.314 6.666 12.655 2.169 22.228 5.878 22.228 18.903 0 11.06-8.79 21.056-26.014 20.75-11.353-.23-19.41-4.066-23.726-7.79-.146-.125-1.789-1.8-.91-3.811 1.01-2.591 2.71-5.561 4.046-7.137.741-1.012 2.7-1.174 3.718-.542 3.558 2.21 9.414 5.757 16.164 5.99.533.02 1.06.024 1.579.01 6.071-.148 9.745-2.45 9.668-6.328-.066-3.418-4.88-5.413-12.545-6.857-12.228-2.305-22.064-6.335-22.064-18.634M294.893 109.303c-8.622.111-16.527 2.469-16.756 9.207-.002 5.346 4.337 7.971 10.423 7.63 5.838-.563 10.293-3.097 12.255-6.456.726-1.245.835-5.907.791-7.899-.01-.422-.848-1.225-1.215-1.38-1.832-.77-3.187-1.01-5.498-1.102m-28.688-27.15c4.032-3.607 12.026-9.223 24.766-8.927 16.81.35 25.694 8.232 26.521 27.087.34 7.776-.224 29.463-.36 34.867-.019.775-.28 1.31-1.327 1.332-2.766.111-9.164.067-12.104.03-1.481-.072-1.654-.809-1.673-1.579-.012-.503-.056-1.998-.087-3.215-.015-.647-.624-.628-.779-.462-3.945 4.21-10.403 6.244-17.271 6.244-10.438 0-20.844-6.141-20.813-18.303.031-12.455 8.862-18.599 18.564-20.045 6.211-.927 13.214-.103 18.517 2.004.339.134 1.031-.061 1.038-.543.022-1.586-.054-4.611-.36-6.044-.778-3.653-3.826-6.592-10.228-7.384a19.673 19.673 0 0 0-3.972-.11c-5.09.4-11.212 4.368-13.748 5.853-.596.349-1.532.094-1.833-.296-1.48-1.91-5.2-7.504-5.492-8.397-.292-.892.12-1.642.641-2.111zM323.035 105.338c-.1-17.37 12.002-32.025 31.656-32.153 12.262-.08 21.172 5.479 22.744 8.102.319.614.155 1.13-.068 1.75-1.037 2.19-3.66 6.425-5.53 8.825-.795 1.022-1.66.146-2.663-.522-2.786-1.855-8.08-4.126-13.29-4.125-9.452.001-16.49 6.483-16.412 18.406.074 11.443 6.816 17.73 16.445 17.96 5.034.125 9.911-2.768 12.534-5.137.826-.72 1.678-.359 2.62.375 1.848 1.89 4.497 4.804 5.966 6.812.963 1.115.243 2.205-.103 2.644-3.987 5.046-11.687 9.292-21.876 9.348-21.338.15-31.923-14.852-32.023-32.285M424.887 136.842c1.002-.074 11.69-1.549 14.97-2.3.814-.187 1.102-.87.649-1.549-1.833-2.747-6.65-10.548-11.693-17.532-4.64-6.42-9.53-12.069-11.113-14.24-.385-.53-.364-1.049.056-1.459 3.009-2.944 15.594-15.282 20.325-20.378 1.833-1.982.733-2.834-.823-3.298-3.006-.896-7.867-2.012-10.633-2.595-1.164-.246-2.568-.16-3.588.888-4.732 4.411-19.17 18.902-23.478 23.234-.778.782-1.228.607-1.233-.51-.035-8.35-.201-44.105-.498-49.988-.022-.777-.957-1.367-1.484-1.394-2.71-.141-9.557-.182-12.255-.024-.756.086-1.478.856-1.544 1.507-.622 9.404.263 78.436.634 88.093.026.698.546 1.24 1.209 1.278 2.692.157 9.348.147 12.458.09 1.53 0 1.718-1.077 1.718-1.077l.23-18.525s.158-.823.412-1.096c1.095-1.178 4.127-4.428 5.421-5.684.31-.302.8-.28 1.116.146 1.536 2.071 5.916 8.808 9.976 14.823 3.73 5.524 7.21 10.43 7.454 10.776.563.8 1.22.832 1.714.814zM243.117 136.778c.94.032 8.07.025 11.23.02 1.066.02 1.619-.785 1.654-1.496.67-13.54.384-78.003-.04-88.182-.035-.88-.412-1.21-1.013-1.29-2.712-.364-10.418-.28-12.887.367-.485.127-.767.493-.785.966-.605 26.237-.197 86.728-.069 87.874.128 1.146.726 1.701 1.91 1.741z"/><path fill="#70CADB" d="M52.258 109.86c-4.395.032-8.118-2.587-9.49-6.674a11.614 11.614 0 0 1-.143-.466c-1.496-5.236 1.405-10.712 6.604-12.465l83.384-27.935a11.346 11.346 0 0 1 3.046-.446c4.51-.036 8.337 2.641 9.744 6.816l.124.403c1.559 5.452-2.316 10.32-6.959 11.88l-82.922 28.31a10.86 10.86 0 0 1-3.388.576z"/><path fill="#E01765" d="M66.157 150.867c-4.428.032-8.165-2.55-9.521-6.578-.05-.155-.099-.31-.142-.464-1.517-5.298 1.38-10.83 6.596-12.588l83.387-28.192c1.077-.36 2.19-.545 3.308-.554 4.442-.034 8.344 2.679 9.72 6.754l.129.425c.805 2.814.329 5.98-1.27 8.478-1.196 1.859-4.96 3.494-4.96 3.494L69.698 150.26c-1.165.39-2.355.595-3.54.606z"/><path fill="#E8A723" d="M135.572 151.044a10.235 10.235 0 0 1-9.802-6.977L97.94 61.402l-.14-.465c-1.506-5.27 1.392-10.769 6.59-12.522a10.174 10.174 0 0 1 7.826.532 10.212 10.212 0 0 1 5.159 5.913l27.828 82.658.081.265c1.562 5.473-1.33 10.976-6.528 12.726a10.252 10.252 0 0 1-3.184.535z"/><path fill="#3EB890" d="M94.205 164.97a10.244 10.244 0 0 1-9.808-6.984L56.575 75.323c-.048-.153-.096-.303-.14-.46a10.237 10.237 0 0 1 6.583-12.523 10.323 10.323 0 0 1 3.187-.535 10.24 10.24 0 0 1 9.805 6.98l27.824 82.664c.052.146.099.304.14.457a10.234 10.234 0 0 1-6.588 12.529 10.266 10.266 0 0 1-3.18.534z"/><path fill="#CC2027" d="M121.852 132.43l19.405-6.636-6.343-18.839-19.428 6.567z"/><path fill="#361238" d="M80.549 146.551l19.403-6.634-6.39-18.982-19.424 6.567z"/><path fill="#65863A" d="M108.037 91.396l19.407-6.625-6.268-18.62-19.444 6.514 6.305 18.731z"/><path fill="#1A937D" d="M66.73 105.498l19.407-6.625-6.346-18.856-19.443 6.513 6.382 18.968z"/></g></switch></svg>