<svg xmlns="http://www.w3.org/2000/svg" viewBox="0 0 785.25 267.719696"><switch><g><g fill="#205081"><path d="M471.92 86.795c6.508 0 15.513.908 24.094 2.397a2.767 2.767 0 0 0 2.1-.487 2.75 2.75 0 0 0 1.097-1.875l1.837-14.29a2.737 2.737 0 0 0-2.09-3.023c-8.6-2.068-18.437-3.198-27.668-3.198-25.78 0-38.863 10.728-38.863 31.848v47.696c0 21.145 13.083 31.861 38.863 31.861 9.235 0 19.068-1.136 27.669-3.189a2.748 2.748 0 0 0 2.089-3.025l-1.837-14.295a2.704 2.704 0 0 0-1.096-1.856 2.738 2.738 0 0 0-2.101-.512c-8.584 1.5-17.594 2.401-24.094 2.401-12.782 0-17.097-3.758-17.097-14.876v-40.699c0-11.125 4.315-14.878 17.097-14.878M302.932 67.902H286.05a2.758 2.758 0 0 0-2.75 2.767v40.801h-36.905V70.67a2.759 2.759 0 0 0-2.755-2.767h-16.877a2.76 2.76 0 0 0-2.755 2.767v102.714a2.757 2.757 0 0 0 2.755 2.754h16.877a2.756 2.756 0 0 0 2.755-2.754v-41.915H283.3v41.915a2.755 2.755 0 0 0 2.75 2.754h16.882a2.757 2.757 0 0 0 2.754-2.754V70.67a2.76 2.76 0 0 0-2.754-2.767M616.824 94.781c-8.217 0-18.232 1.292-25.497 3.286a2.778 2.778 0 0 0-1.988 3.11l1.905 11.789a2.736 2.736 0 0 0 1.139 1.818c.609.43 1.373.593 2.101.443 6.755-1.312 13.736-2.04 19.644-2.04 11.723 0 13.598 2.474 13.598 10.422v6.935h-17.414c-16.645 0-23.755 6.86-23.755 22.956 0 15.39 7.792 24.224 21.373 24.224 7.845 0 15.715-2.182 22.326-6.174l.7 2.553a2.76 2.76 0 0 0 2.647 2.034h13.13a2.75 2.75 0 0 0 2.743-2.754v-49.458c0-21.248-8.852-29.144-32.652-29.144m10.902 52.1v9.582c-2.69 1.438-7.563 3.481-13.444 3.481-5.062 0-6.612-1.549-6.612-6.609 0-4.912.958-6.454 6.931-6.454h13.125zM705.818 160.31a2.737 2.737 0 0 0-1.195-1.88 2.794 2.794 0 0 0-2.178-.39c-2.871.722-5.625 1.111-7.746 1.111-4.028 0-5.804-1.733-5.804-5.651v-39.358h15.783a2.747 2.747 0 0 0 2.747-2.748V99.113a2.752 2.752 0 0 0-2.747-2.746h-15.783V77.419a2.748 2.748 0 0 0-3.127-2.722l-16.262 2.262a2.747 2.747 0 0 0-2.364 2.724v16.684h-8.855a2.75 2.75 0 0 0-2.75 2.746v12.281a2.745 2.745 0 0 0 2.75 2.748h8.855v41.901c0 14.383 7.555 21.681 22.477 21.681 4.246 0 11.448-.973 16.173-2.614a2.75 2.75 0 0 0 1.812-3.004l-1.786-11.796zM338.263 96.367h-16.26a2.747 2.747 0 0 0-2.74 2.746v74.27c0 1.51 1.228 2.754 2.74 2.754h16.26a2.759 2.759 0 0 0 2.755-2.754v-74.27a2.751 2.751 0 0 0-2.755-2.746M338.263 64.806h-16.26a2.745 2.745 0 0 0-2.74 2.745v16.114a2.744 2.744 0 0 0 2.74 2.751h16.26a2.748 2.748 0 0 0 2.755-2.75V67.55a2.75 2.75 0 0 0-2.755-2.745"/><path d="M338.263 96.367h-16.26a2.747 2.747 0 0 0-2.74 2.746v74.27c0 1.51 1.228 2.754 2.74 2.754h16.26a2.759 2.759 0 0 0 2.755-2.754v-74.27a2.751 2.751 0 0 0-2.755-2.746M396.234 94.781c-8.619 0-16.43 2.41-23.8 7.377l-1.122-3.828a2.758 2.758 0 0 0-2.644-1.963h-12.667a2.755 2.755 0 0 0-2.755 2.742V204.9a2.756 2.756 0 0 0 2.755 2.75h16.24a2.747 2.747 0 0 0 2.752-2.75v-29.14c6.37 1.24 13.55 1.965 19.494 1.965 17.772 0 26.773-9.59 26.773-28.512v-26.4c0-23.179-13.605-28.03-25.026-28.03m3.284 27.555v27.342c0 6.588-2.397 9.152-8.526 9.152-6.184 0-12.724-1.156-16-1.837v-36.991c3.594-3.117 10-6.342 16.156-6.342 6.009 0 8.37 2.431 8.37 8.676M559.296 94.781c-7.954 0-18.6 2.674-27.127 6.747V67.56c0-1.539-1.23-2.77-2.747-2.77h-16.243a2.762 2.762 0 0 0-2.758 2.77v105.837c0 1.496 1.24 2.741 2.758 2.741h16.243a2.756 2.756 0 0 0 2.747-2.741v-51.45c5.853-2.98 14.099-6.059 19.01-6.059 3.664 0 5.02 1.358 5.02 5.027v52.482a2.755 2.755 0 0 0 2.754 2.741h16.25a2.758 2.758 0 0 0 2.75-2.741v-54.558c0-15.962-6.28-24.057-18.657-24.057"/></g><g fill="#205081"><path d="M170.686 135.876c-.002-1.502-1.221-2.854-2.86-2.854-.662 0-1.34.225-1.894.724-7.236 6.501-19.55 12.252-34.443 12.29h-.06c-14.867-.038-26.827-6.018-34.442-12.288-.482-.397-1.374-.669-1.953-.669-1.769 0-2.799 1.506-2.8 3.162-.001 1.278.894 2.345 1.631 3.451 4.27 6.41 17.512 17.292 37.438 17.292h.312c19.927 0 33.17-10.883 37.438-17.292.738-1.106 1.634-2.538 1.633-3.816z"/><path d="M190.499 185.83c-5.074-2.889-9.888-7.776-12.094-14.472-.432-1.313-.048-2.374.964-3.156 14.678-11.348 23.914-27.823 23.914-46.171 0-34.22-32.157-61.96-71.82-61.96-39.668 0-71.826 27.74-71.826 61.96 0 34.237 32.158 61.983 71.825 61.983a83.12 83.12 0 0 0 15.108-1.375 4.059 4.059 0 0 1 2.963.548c9.83 6.032 24.467 11.091 37.304 11.091 4.136 0 5.726-2.623 5.726-5.011 0-1.54-.835-2.736-2.064-3.436zm-19.222-6.022c.226.3.345.554.345.83 0 .416-.394.703-.89.703-3.598 0-14.685-5.975-20.521-10.898-.799-.673-1.917-.92-3.504-.575a71.652 71.652 0 0 1-15.245 1.632c-33.017 0-59.783-22.099-59.783-49.367 0-27.254 26.766-49.348 59.783-49.348 33.014 0 59.779 22.094 59.779 49.348 0 16.271-9.533 30.699-24.234 39.691-.982.601-2.029 1.731-2.029 3.145 0 2.902 2.727 10.097 6.3 14.839z"/></g></g></switch></svg>