<?xml version="1.0" encoding="utf-8"?>
<!-- Generator: Adobe Illustrator 19.2.1, SVG Export Plug-In . SVG Version: 6.00 Build 0)  -->
<svg version="1.1" id="Layer_1" xmlns="http://www.w3.org/2000/svg" xmlns:xlink="http://www.w3.org/1999/xlink" x="0px" y="0px"
	 viewBox="0 0 45 38.2" style="enable-background:new 0 0 45 38.2;" xml:space="preserve">
<style type="text/css">
	.st0{fill:#CCCCCC;}
</style>
<title>runnable-icon-pink</title>
<path id="logomark" class="st0" d="M41.2,36.3L4.9,38.2c-2.7,0.1-4.9-1.7-4.9-4V7.5l45,1.4v23.4C45,34.5,43.3,36.2,41.2,36.3z
	 M29.3,20.1l-6-5.7c-0.9-0.8-2.2-0.8-3.1,0c-0.8,0.7-0.9,1.9-0.2,2.7c0.1,0.1,0.1,0.1,0.2,0.2l4.6,4.3l-4.6,4.3
	c-0.8,0.7-0.9,1.9-0.2,2.7c0.1,0.1,0.1,0.1,0.2,0.2c0.9,0.8,2.2,0.7,3.1-0.1l6-5.8C30.1,22.2,30.1,20.9,29.3,20.1
	C29.4,20.1,29.3,20.1,29.3,20.1z M0,4.1c0-2.4,2.2-4.2,4.9-4l36.3,1.9C43.3,2,45,3.7,45,5.9v1.5L0,5.8V4.1L0,4.1z M12.4,3.9
	c0,0.4,0.3,0.7,0.7,0.7l1.4,0.1c0.3,0,0.6-0.2,0.7-0.6l0,0V2.8c0-0.4-0.3-0.6-0.7-0.7l-1.4-0.1c-0.3,0-0.6,0.2-0.7,0.6c0,0,0,0,0,0
	l0,0L12.4,3.9L12.4,3.9L12.4,3.9z M7.7,3.7c0,0.4,0.3,0.7,0.7,0.7l1.4,0.1c0.3,0,0.7-0.2,0.7-0.6c0,0,0,0,0,0l0,0V2.6
	c0-0.4-0.3-0.7-0.7-0.7L8.4,1.9c-0.3,0-0.7,0.2-0.7,0.6c0,0,0,0,0,0l0,0L7.7,3.7L7.7,3.7z M2.9,3.5c0,0.4,0.3,0.7,0.7,0.7l1.4,0.1
	c0.4,0,0.7-0.2,0.7-0.6c0,0,0,0,0,0l0,0V2.4c0-0.4-0.3-0.7-0.7-0.7L3.7,1.6C3.3,1.6,3,1.9,2.9,2.2l0,0L2.9,3.5L2.9,3.5z"/>
</svg>
