<svg id="light" xmlns="http://www.w3.org/2000/svg" viewBox="0 0 104.3413 88.5702"><defs><style>.cls-1{fill:#ccc;fill-rule:evenodd;}</style></defs><title>lockup</title><path class="cls-1" d="M95.42,84.1711L11.2661,88.5529C5.0806,88.8742,0,84.6769,0,79.172V17.3727l104.3413,3.26v54.314A9.4027,9.4027,0,0,1,95.42,84.1711ZM67.9136,46.548L53.9741,33.3747a5.3443,5.3443,0,0,0-7.1548-.0967,4.454,4.454,0,0,0,0,6.665l10.6851,9.9234L46.8193,59.9386a4.4539,4.4539,0,0,0,0,6.6651,5.3482,5.3482,0,0,0,7.1548-.1963L67.9136,53.04A4.43,4.43,0,0,0,67.9136,46.548ZM0,9.3986C0,3.8932,5.0806-.3045,11.2661.0173L95.42,4.4a9.403,9.403,0,0,1,8.9214,9.2246v3.5039L0,13.3859V9.3986Zm28.6919-.2832a1.6043,1.6043,0,0,0,1.5972,1.51l3.1757,0.1284a1.44,1.44,0,0,0,1.5787-1.37V6.5148a1.6014,1.6014,0,0,0-1.5787-1.5093l-3.1757-.1508a1.4435,1.4435,0,0,0-1.5972,1.37V9.1154ZM17.8857,8.6589A1.6385,1.6385,0,0,0,19.5244,10.19l3.2583,0.1319a1.47,1.47,0,0,0,1.62-1.3877V6.0285a1.6337,1.6337,0,0,0-1.62-1.5293l-3.2583-.1553a1.4742,1.4742,0,0,0-1.6387,1.3867V8.6589Zm-11.09-.4683A1.6727,1.6727,0,0,0,8.477,9.7419l3.3448,0.1352a1.5013,1.5013,0,0,0,1.6626-1.4043V5.53a1.67,1.67,0,0,0-1.6626-1.5508L8.477,3.8205A1.5047,1.5047,0,0,0,6.7954,5.2238V8.1906Z"/></svg>