<svg id="dark" xmlns="http://www.w3.org/2000/svg" viewBox="0 0 597.4499 88.5702"><defs><style>.cls-1{fill:#fff;}.cls-2{fill:#cbaed3;fill-rule:evenodd;}</style></defs><title>lockup</title><g id="runnable"><path class="cls-1" d="M171.1484,23.6286a14.6654,14.6654,0,0,0-5.1255.8432,15.6849,15.6849,0,0,0-4.0688,2.2134,21.0821,21.0821,0,0,0-3.2759,3.11,39.2384,39.2384,0,0,0-2.7475,3.6367V25.21H137.6479q0,0.9478.1055,2.7408,0.1034,1.7929.2114,3.8471,0.1041,2.0551.1582,4.2162,0.0521,2.1621.0528,3.9532V82.132H158.15V50.7189a23.0759,23.0759,0,0,1,.3169-4.3222,5.0472,5.0472,0,0,1,1.7969-2.8458,8.7241,8.7241,0,0,1,2.3774-1.581,10.0821,10.0821,0,0,1,4.28-.7373,10.8826,10.8826,0,0,1,3.4346.58,10.5236,10.5236,0,0,1,3.0117,1.5283l3.8047-18.6577a18.8127,18.8127,0,0,0-2.8008-.7378A16.9764,16.9764,0,0,0,171.1484,23.6286ZM217.436,58.4142a15.6879,15.6879,0,0,1-.3154,3.584,8.0351,8.0351,0,0,1-1.8872,3.0567,6.7784,6.7784,0,0,1-5.1392,2.2137q-6.3976,0-6.3969-7.8008V25.21H183.7236V64.5275A27.8063,27.8063,0,0,0,184.728,72.17a16.7915,16.7915,0,0,0,3.17,6.167,14.4891,14.4891,0,0,0,5.6016,4.11,20.9647,20.9647,0,0,0,8.2954,1.4756,19.241,19.241,0,0,0,9.9873-2.4765,25.3923,25.3923,0,0,0,7.3448-6.6934V82.132H237.41V25.21H217.436V58.4142Zm83.4351-29.41a15.33,15.33,0,0,0-5.8125-4.1109,22.3987,22.3987,0,0,0-8.6133-1.4756,19.6707,19.6707,0,0,0-10.5683,2.6875,28.8371,28.8371,0,0,0-7.7144,7.1153V25.21H249.88V82.132h19.9736v-33.1a13.5607,13.5607,0,0,1,.3661-3.584,7.3779,7.3779,0,0,1,2.1524-2.9512,8.2141,8.2141,0,0,1,2.4668-1.6338,7.9624,7.9624,0,0,1,3.3056-.6855q3.6738,0,5.3526,1.95,1.68,1.9519,1.6806,5.8506V82.132h19.9737V42.8132a27.8734,27.8734,0,0,0-1.0038-7.6422A16.0631,16.0631,0,0,0,300.8711,29.0046Zm67.5293,0a15.3375,15.3375,0,0,0-5.8125-4.1109,22.3987,22.3987,0,0,0-8.6133-1.4756,19.6667,19.6667,0,0,0-10.5684,2.6875,28.833,28.833,0,0,0-7.7148,7.1153V25.21H317.4082V82.132h19.9746v-33.1a13.5607,13.5607,0,0,1,.3661-3.584A7.3748,7.3748,0,0,1,339.9,42.4972a8.2191,8.2191,0,0,1,2.4678-1.6338,7.9584,7.9584,0,0,1,3.3055-.6855q3.6725,0,5.3535,1.95,1.6788,1.9519,1.6788,5.8506V82.132H372.68V42.8132a27.8733,27.8733,0,0,0-1.0039-7.6422A16.0464,16.0464,0,0,0,368.4,29.0046Zm69.2715,41.269a4.8781,4.8781,0,0,1-1.1612.1582,1.6161,1.6161,0,0,1-1.7968-1.16,9.54,9.54,0,0,1-.3174-2.5293V43.7619a19.7421,19.7421,0,0,0-2.3779-10.2774,18.0613,18.0613,0,0,0-6.0772-6.2192,23.24,23.24,0,0,0-8.1894-3.0566,50.2635,50.2635,0,0,0-8.7188-.7906,66.6625,66.6625,0,0,0-12.4707,1.1065,56.4264,56.4264,0,0,0-11.52,3.5312l4.4394,13.8086a32.5987,32.5987,0,0,1,6.6572-3.1093A26.0742,26.0742,0,0,1,404.7,37.4372a21.6506,21.6506,0,0,1,5.2314.5273,9.5062,9.5062,0,0,1,3.2764,1.4234,4.8927,4.8927,0,0,1,1.69,2.0551,6.3281,6.3281,0,0,1,.4756,2.4244v2.1084a1.6173,1.6173,0,0,1-1.0566,1.7919,10.3111,10.3111,0,0,1-2.8535.3155,76.4976,76.4976,0,0,0-10.04.6865,33.9129,33.9129,0,0,0-9.5107,2.6348,18.335,18.335,0,0,0-7.1338,5.5869q-2.8008,3.6357-2.8008,9.6445a18.5176,18.5176,0,0,0,1.2686,6.957,15.54,15.54,0,0,0,3.5927,5.4288,16.5347,16.5347,0,0,0,5.4952,3.5312,18.656,18.656,0,0,0,6.9755,1.2656,23.4893,23.4893,0,0,0,10.251-1.95,25.0089,25.0089,0,0,0,7.6084-5.955,9.5375,9.5375,0,0,0,3.8057,5.2695,13.2094,13.2094,0,0,0,7.7139,2.0029,39.975,39.975,0,0,0,5.8125-.4209q2.8534-.4233,4.9667-0.9492l-0.7392-11.9111A5.2143,5.2143,0,0,1,437.6719,70.2736Zm-22.4033-7.2217a7.6371,7.6371,0,0,1-1.9024,5.4824,8.5349,8.5349,0,0,1-6.4464,2.5293,5.6,5.6,0,0,1-5.8135-5.7978,5.31,5.31,0,0,1,1.0577-3.4258,6.7844,6.7844,0,0,1,2.6416-2.0029,13.3907,13.3907,0,0,1,3.4355-.9483,24.5455,24.5455,0,0,1,3.4336-.2636q0.9521,0,1.9023-.0528a8.76,8.76,0,0,1,1.6915.0528v4.4267Zm83.7519-30.4634a21.7683,21.7683,0,0,0-6.7637-6.6411,18.1483,18.1483,0,0,0-9.7754-2.5293,16.9409,16.9409,0,0,0-9.247,2.3189,26.4427,26.4427,0,0,0-6.5,5.9028V4.1276H446.6553V82.132h19.5508V79.7072a14.5679,14.5679,0,0,0,5.4951,3.0576,21.7257,21.7257,0,0,0,6.87,1.1582A23.019,23.019,0,0,0,490.46,81.0246a24.722,24.722,0,0,0,7.9785-7.3779,30.7344,30.7344,0,0,0,4.4394-9.962,43.8052,43.8052,0,0,0,1.3741-10.6464,47.365,47.365,0,0,0-1.2686-11.0157A29.5654,29.5654,0,0,0,499.0205,32.5885ZM483.01,60.2062a17.75,17.75,0,0,1-1.4795,4.8488,10.3967,10.3967,0,0,1-2.9063,3.69,7.302,7.302,0,0,1-4.7031,1.4746q-3.8057,0-5.5479-1.6328a5.7077,5.7077,0,0,1-1.7441-4.375V48.2951a10.0029,10.0029,0,0,1,.4229-3.2153,7.591,7.591,0,0,1,1.9023-2.688,8.8471,8.8471,0,0,1,2.3252-1.6338,7.0044,7.0044,0,0,1,3.17-.6851,6.7824,6.7824,0,0,1,4.65,1.5811,10.3536,10.3536,0,0,1,2.7471,3.9,18.9847,18.9847,0,0,1,1.2685,4.9541,40.9054,40.9054,0,0,1,.3164,4.85A30.9587,30.9587,0,0,1,483.01,60.2062ZM513.1279,82.132h19.9737V4.1276H513.1279V82.132Zm82.959-42.2173a23.126,23.126,0,0,0-4.6494-8.3276,23.52,23.52,0,0,0-8.19-5.9029,29.2869,29.2869,0,0,0-12.1006-2.2661,30.7926,30.7926,0,0,0-12.6289,2.4239,26.1184,26.1184,0,0,0-9.1416,6.6411,28.8056,28.8056,0,0,0-5.6006,9.75,36.2266,36.2266,0,0,0-1.9024,11.8593,32.3,32.3,0,0,0,2.4834,13.1231,25.2606,25.2606,0,0,0,6.8692,9.3291,29.2309,29.2309,0,0,0,10.4092,5.5342A44.61,44.61,0,0,0,574.74,83.923a60.1339,60.1339,0,0,0,11.7832-1.1064,64.6018,64.6018,0,0,0,9.5635-2.5821L592.6,66.3205a44.2325,44.2325,0,0,1-6.9219,2.3711,31.15,31.15,0,0,1-7.873,1.0019q-7.7154,0-11.836-3.2148a10.3432,10.3432,0,0,1-4.122-8.5918V57.15H597.25q0.1025-.7368.1582-1.792,0.0527-1.0533.1055-2.1611c0.0351-.7383.0527-1.44,0.0527-2.1084V49.4543A31.5455,31.5455,0,0,0,596.0869,39.9147Zm-17.12,5.8511h-17.332a14.0494,14.0494,0,0,1,.4228-3.3213,10.3593,10.3593,0,0,1,1.4268-3.2676,7.5082,7.5082,0,0,1,2.748-2.4775,8.8558,8.8558,0,0,1,4.28-.9483,7.7421,7.7421,0,0,1,6.6572,3.004A9.681,9.681,0,0,1,578.9668,45.7658Z"/></g><path id="logomark" class="cls-2" d="M95.42,84.1711L11.2661,88.5529C5.0806,88.8742,0,84.6769,0,79.172V17.3727l104.3413,3.26v54.314A9.4027,9.4027,0,0,1,95.42,84.1711ZM67.9136,46.548L53.9741,33.3747a5.3443,5.3443,0,0,0-7.1548-.0967,4.454,4.454,0,0,0,0,6.665l10.6851,9.9234L46.8193,59.9386a4.4539,4.4539,0,0,0,0,6.6651,5.3482,5.3482,0,0,0,7.1548-.1963L67.9136,53.04A4.43,4.43,0,0,0,67.9136,46.548ZM0,9.3986C0,3.8932,5.0806-.3045,11.2661.0173L95.42,4.4a9.403,9.403,0,0,1,8.9214,9.2246v3.5039L0,13.3859V9.3986Zm28.6919-.2832a1.6043,1.6043,0,0,0,1.5972,1.51l3.1757,0.1284a1.44,1.44,0,0,0,1.5787-1.37V6.5148a1.6014,1.6014,0,0,0-1.5787-1.5093l-3.1757-.1508a1.4435,1.4435,0,0,0-1.5972,1.37V9.1154ZM17.8857,8.6589A1.6385,1.6385,0,0,0,19.5244,10.19l3.2583,0.1319a1.47,1.47,0,0,0,1.62-1.3877V6.0285a1.6337,1.6337,0,0,0-1.62-1.5293l-3.2583-.1553a1.4742,1.4742,0,0,0-1.6387,1.3867V8.6589Zm-11.09-.4683A1.6727,1.6727,0,0,0,8.477,9.7419l3.3448,0.1352a1.5013,1.5013,0,0,0,1.6626-1.4043V5.53a1.67,1.67,0,0,0-1.6626-1.5508L8.477,3.8205A1.5047,1.5047,0,0,0,6.7954,5.2238V8.1906Z"/></svg>