<svg id="light" xmlns="http://www.w3.org/2000/svg" viewBox="0 0 597.5664 88.5703"><defs><style>.cls-1,.cls-2{fill:#ccc;}.cls-2{fill-rule:evenodd;}</style></defs><title>lockup</title><g id="lockup"><path class="cls-1" d="M171.1484,23.6287a14.6654,14.6654,0,0,0-5.1255.8432,15.683,15.683,0,0,0-4.0688,2.2134,21.0793,21.0793,0,0,0-3.2759,3.11,39.2221,39.2221,0,0,0-2.7475,3.6367V25.21H137.6479q0,0.9478.1055,2.7408,0.1034,1.793.2114,3.8471,0.1041,2.0552.1582,4.2163,0.0521,2.1621.0528,3.9532V82.1321H158.15V50.7189a23.0768,23.0768,0,0,1,.3169-4.3222,5.0471,5.0471,0,0,1,1.7969-2.8458,8.7227,8.7227,0,0,1,2.3774-1.581,10.0821,10.0821,0,0,1,4.28-.7373,10.8826,10.8826,0,0,1,3.4346.58,10.5236,10.5236,0,0,1,3.0117,1.5283l3.8047-18.6577a18.8053,18.8053,0,0,0-2.8008-.7378A16.9715,16.9715,0,0,0,171.1484,23.6287ZM217.436,58.4142a15.6869,15.6869,0,0,1-.3154,3.584,8.0342,8.0342,0,0,1-1.8872,3.0567,6.7787,6.7787,0,0,1-5.1392,2.2138q-6.3976,0-6.3969-7.8008V25.21H183.7236V64.5275A27.8064,27.8064,0,0,0,184.728,72.17a16.7919,16.7919,0,0,0,3.17,6.167,14.49,14.49,0,0,0,5.6016,4.11,20.9647,20.9647,0,0,0,8.2954,1.4756,19.24,19.24,0,0,0,9.9873-2.4765,25.3912,25.3912,0,0,0,7.3448-6.6934v7.3789H237.41V25.21H217.436V58.4142Zm83.4351-29.41a15.33,15.33,0,0,0-5.8125-4.1109,22.3987,22.3987,0,0,0-8.6133-1.4756,19.6707,19.6707,0,0,0-10.5683,2.6875,28.8361,28.8361,0,0,0-7.7144,7.1153V25.21H249.88V82.1321h19.9736v-33.1a13.5616,13.5616,0,0,1,.3661-3.584,7.3782,7.3782,0,0,1,2.1524-2.9512,8.2129,8.2129,0,0,1,2.4668-1.6338,7.9624,7.9624,0,0,1,3.3056-.6855q3.6738,0,5.3526,1.95,1.68,1.9519,1.6806,5.8506V82.1321h19.9737V42.8132a27.8732,27.8732,0,0,0-1.0038-7.6421A16.0627,16.0627,0,0,0,300.8711,29.0046Zm67.5293,0a15.3375,15.3375,0,0,0-5.8125-4.1109,22.3987,22.3987,0,0,0-8.6133-1.4756,19.6667,19.6667,0,0,0-10.5684,2.6875,28.832,28.832,0,0,0-7.7148,7.1153V25.21H317.4082V82.1321h19.9746v-33.1a13.5616,13.5616,0,0,1,.3661-3.584A7.3751,7.3751,0,0,1,339.9,42.4972a8.2179,8.2179,0,0,1,2.4678-1.6338,7.9584,7.9584,0,0,1,3.3055-.6855q3.6725,0,5.3535,1.95,1.6788,1.9519,1.6788,5.8506V82.1321H372.68V42.8132a27.8732,27.8732,0,0,0-1.0039-7.6421A16.0459,16.0459,0,0,0,368.4,29.0046Zm69.2715,41.269a4.8781,4.8781,0,0,1-1.1612.1582,1.6161,1.6161,0,0,1-1.7968-1.16,9.5394,9.5394,0,0,1-.3174-2.5293V43.762a19.7421,19.7421,0,0,0-2.3779-10.2774,18.0613,18.0613,0,0,0-6.0772-6.2192,23.2374,23.2374,0,0,0-8.1894-3.0566,50.2575,50.2575,0,0,0-8.7188-.7906,66.6625,66.6625,0,0,0-12.4707,1.1065,56.4225,56.4225,0,0,0-11.52,3.5312l4.4394,13.8086a32.6019,32.6019,0,0,1,6.6572-3.1093A26.0743,26.0743,0,0,1,404.7,37.4373a21.6506,21.6506,0,0,1,5.2314.5273,9.5062,9.5062,0,0,1,3.2764,1.4234,4.8924,4.8924,0,0,1,1.69,2.0551,6.3278,6.3278,0,0,1,.4756,2.4244v2.1084a1.6173,1.6173,0,0,1-1.0566,1.7919,10.3111,10.3111,0,0,1-2.8535.3155,76.4976,76.4976,0,0,0-10.04.6865,33.9109,33.9109,0,0,0-9.5107,2.6348,18.335,18.335,0,0,0-7.1338,5.5869q-2.8008,3.6357-2.8008,9.6445a18.518,18.518,0,0,0,1.2686,6.957,15.5394,15.5394,0,0,0,3.5927,5.4288,16.5339,16.5339,0,0,0,5.4952,3.5313,18.6572,18.6572,0,0,0,6.9755,1.2656,23.4893,23.4893,0,0,0,10.251-1.95,25.0092,25.0092,0,0,0,7.6084-5.955,9.5374,9.5374,0,0,0,3.8057,5.27,13.2094,13.2094,0,0,0,7.7139,2.0029,39.975,39.975,0,0,0,5.8125-.4209q2.8534-.4232,4.9667-0.9492l-0.7392-11.9111A5.2181,5.2181,0,0,1,437.6719,70.2737Zm-22.4033-7.2217a7.6371,7.6371,0,0,1-1.9024,5.4824,8.5349,8.5349,0,0,1-6.4464,2.5293,5.6,5.6,0,0,1-5.8135-5.7978,5.31,5.31,0,0,1,1.0577-3.4258,6.7849,6.7849,0,0,1,2.6416-2.0029,13.3882,13.3882,0,0,1,3.4355-.9483,24.5455,24.5455,0,0,1,3.4336-.2636q0.9521,0,1.9023-.0528a8.76,8.76,0,0,1,1.6915.0528v4.4267Zm83.7519-30.4634a21.7676,21.7676,0,0,0-6.7637-6.6411,18.1478,18.1478,0,0,0-9.7754-2.5293,16.9409,16.9409,0,0,0-9.247,2.3189,26.4437,26.4437,0,0,0-6.5,5.9028V4.1276H446.6553V82.1321h19.5508V79.7073a14.567,14.567,0,0,0,5.4951,3.0576,21.724,21.724,0,0,0,6.87,1.1582A23.019,23.019,0,0,0,490.46,81.0247a24.7222,24.7222,0,0,0,7.9785-7.3779,30.7335,30.7335,0,0,0,4.4394-9.962,43.806,43.806,0,0,0,1.3741-10.6464,47.3649,47.3649,0,0,0-1.2686-11.0157A29.5654,29.5654,0,0,0,499.0205,32.5886ZM483.01,60.2062a17.7492,17.7492,0,0,1-1.4795,4.8487,10.3969,10.3969,0,0,1-2.9063,3.69,7.3023,7.3023,0,0,1-4.7031,1.4746q-3.8057,0-5.5479-1.6328a5.7077,5.7077,0,0,1-1.7441-4.375V48.2952a10.0036,10.0036,0,0,1,.4229-3.2153,7.5908,7.5908,0,0,1,1.9023-2.688,8.8471,8.8471,0,0,1,2.3252-1.6338,7.0044,7.0044,0,0,1,3.17-.6851,6.7824,6.7824,0,0,1,4.65,1.5811,10.3536,10.3536,0,0,1,2.7471,3.9,18.9841,18.9841,0,0,1,1.2685,4.9541,40.9054,40.9054,0,0,1,.3164,4.85A30.9587,30.9587,0,0,1,483.01,60.2062Zm30.1181,21.9258h19.9737V4.1276H513.1279V82.1321Zm82.959-42.2173a23.1258,23.1258,0,0,0-4.6494-8.3276,23.52,23.52,0,0,0-8.19-5.9029,29.2869,29.2869,0,0,0-12.1006-2.2661,30.7926,30.7926,0,0,0-12.6289,2.4239,26.1184,26.1184,0,0,0-9.1416,6.6411,28.805,28.805,0,0,0-5.6006,9.75A36.2263,36.2263,0,0,0,541.873,54.093a32.3,32.3,0,0,0,2.4834,13.1231,25.2611,25.2611,0,0,0,6.8692,9.3291,29.2309,29.2309,0,0,0,10.4092,5.5342A44.61,44.61,0,0,0,574.74,83.923a60.1387,60.1387,0,0,0,11.7832-1.1064,64.6093,64.6093,0,0,0,9.5635-2.5821L592.6,66.3206a44.2325,44.2325,0,0,1-6.9219,2.3711,31.1526,31.1526,0,0,1-7.873,1.0019q-7.7154,0-11.836-3.2148a10.3432,10.3432,0,0,1-4.122-8.5918V57.15H597.25q0.1025-.7368.1582-1.792,0.0527-1.0533.1055-2.1611c0.0351-.7383.0527-1.4395,0.0527-2.1084V49.4543A31.5459,31.5459,0,0,0,596.0869,39.9147Zm-17.12,5.8511h-17.332a14.0494,14.0494,0,0,1,.4228-3.3213,10.3587,10.3587,0,0,1,1.4268-3.2676,7.5077,7.5077,0,0,1,2.748-2.4775,8.8558,8.8558,0,0,1,4.28-.9483,7.7421,7.7421,0,0,1,6.6572,3.004A9.6812,9.6812,0,0,1,578.9668,45.7659Z"/></g><path class="cls-2" d="M95.42,84.1712L11.2661,88.553C5.0806,88.8743,0,84.677,0,79.1721V17.3728l104.3413,3.26v54.314A9.4027,9.4027,0,0,1,95.42,84.1712ZM67.9136,46.5481L53.9741,33.3748a5.3443,5.3443,0,0,0-7.1548-.0967,4.454,4.454,0,0,0,0,6.665l10.6851,9.9234L46.8193,59.9387a4.4539,4.4539,0,0,0,0,6.6651,5.3482,5.3482,0,0,0,7.1548-.1963L67.9136,53.04A4.43,4.43,0,0,0,67.9136,46.5481ZM0,9.3987C0,3.8933,5.0806-.3044,11.2661.0174L95.42,4.4a9.403,9.403,0,0,1,8.9214,9.2246v3.5039L0,13.386V9.3987Zm28.6919-.2832a1.6043,1.6043,0,0,0,1.5972,1.51l3.1757,0.1284a1.44,1.44,0,0,0,1.5787-1.37V6.5149a1.6014,1.6014,0,0,0-1.5787-1.5093l-3.1757-.1508a1.4435,1.4435,0,0,0-1.5972,1.37V9.1155ZM17.8857,8.659A1.6385,1.6385,0,0,0,19.5244,10.19l3.2583,0.1319a1.47,1.47,0,0,0,1.62-1.3877V6.0286a1.6337,1.6337,0,0,0-1.62-1.5293L19.5244,4.344a1.4742,1.4742,0,0,0-1.6387,1.3867V8.659Zm-11.09-.4683A1.6727,1.6727,0,0,0,8.477,9.742l3.3448,0.1352a1.5013,1.5013,0,0,0,1.6626-1.4043V5.53a1.67,1.67,0,0,0-1.6626-1.5508L8.477,3.8206A1.5047,1.5047,0,0,0,6.7954,5.2239V8.1907Z"/></svg>