<svg id="dark" xmlns="http://www.w3.org/2000/svg" viewBox="0 0 800 300"><defs><style>.cls-1{fill:#602e80;}.cls-2{fill:#fff;}.cls-3{fill:#cbaed3;fill-rule:evenodd;}</style></defs><title>lockup</title><rect id="bg" class="cls-1" width="800" height="300"/><g id="runnable"><path class="cls-2" d="M272.3652,129.6033a14.6668,14.6668,0,0,0-5.1255.8432,15.685,15.685,0,0,0-4.0688,2.2134,21.0789,21.0789,0,0,0-3.2759,3.11,39.2384,39.2384,0,0,0-2.7475,3.6367v-8.2217H238.8647q0,0.9478.1055,2.7408,0.1034,1.793.2114,3.8471,0.1041,2.0551.1582,4.2163,0.0521,2.162.0528,3.9532v42.1645h19.9741V156.6936a23.0759,23.0759,0,0,1,.3169-4.3222,5.0472,5.0472,0,0,1,1.7969-2.8458,8.7241,8.7241,0,0,1,2.3774-1.581,10.0821,10.0821,0,0,1,4.28-.7373,10.8843,10.8843,0,0,1,3.4346.58,10.5236,10.5236,0,0,1,3.0117,1.5283l3.8047-18.6577a18.8127,18.8127,0,0,0-2.8008-.7378A16.9764,16.9764,0,0,0,272.3652,129.6033Zm46.2876,34.7856a15.6879,15.6879,0,0,1-.3154,3.584A8.0351,8.0351,0,0,1,316.45,171.03a6.7787,6.7787,0,0,1-5.1392,2.2138q-6.3976,0-6.3969-7.8008V131.1848H284.94v39.3174a27.8059,27.8059,0,0,0,1.0044,7.6426,16.791,16.791,0,0,0,3.17,6.167,14.4891,14.4891,0,0,0,5.6016,4.11,20.9647,20.9647,0,0,0,8.2954,1.4756,19.241,19.241,0,0,0,9.9873-2.4765,25.3923,25.3923,0,0,0,7.3448-6.6934v7.3789h18.2827V131.1848H318.6528v33.204Zm83.4351-29.41a15.3286,15.3286,0,0,0-5.8125-4.1109,22.3986,22.3986,0,0,0-8.6133-1.4756,19.6707,19.6707,0,0,0-10.5683,2.6875,28.8381,28.8381,0,0,0-7.7144,7.1153v-8.0107H351.0967v56.9219H371.07v-33.1a13.5607,13.5607,0,0,1,.3661-3.584,7.3779,7.3779,0,0,1,2.1524-2.9512,8.2152,8.2152,0,0,1,2.4668-1.6338,7.9624,7.9624,0,0,1,3.3056-.6855q3.6738,0,5.3526,1.95,1.68,1.952,1.6806,5.8506v34.1533h19.9737V148.7879a27.8729,27.8729,0,0,0-1.0038-7.6421A16.0622,16.0622,0,0,0,402.0879,134.9793Zm67.5293,0a15.3362,15.3362,0,0,0-5.8125-4.1109,22.3986,22.3986,0,0,0-8.6133-1.4756A19.6667,19.6667,0,0,0,444.623,132.08a28.834,28.834,0,0,0-7.7148,7.1153v-8.0107H418.625v56.9219H438.6v-33.1a13.5607,13.5607,0,0,1,.3661-3.584,7.3748,7.3748,0,0,1,2.1514-2.9512,8.22,8.22,0,0,1,2.4678-1.6338,7.9584,7.9584,0,0,1,3.3055-.6855q3.6725,0,5.3535,1.95,1.6788,1.952,1.6788,5.8506v34.1533h19.9736V148.7879a27.8729,27.8729,0,0,0-1.0039-7.6421A16.0455,16.0455,0,0,0,469.6172,134.9793Zm69.2715,41.269a4.8781,4.8781,0,0,1-1.1612.1582,1.616,1.616,0,0,1-1.7968-1.16,9.54,9.54,0,0,1-.3174-2.5293V149.7366a19.7423,19.7423,0,0,0-2.3779-10.2774,18.0619,18.0619,0,0,0-6.0772-6.2192,23.2385,23.2385,0,0,0-8.1894-3.0566,50.2577,50.2577,0,0,0-8.7188-.7906,66.6625,66.6625,0,0,0-12.4707,1.1065,56.4264,56.4264,0,0,0-11.52,3.5312l4.4394,13.8087a32.5955,32.5955,0,0,1,6.6572-3.1093,26.0742,26.0742,0,0,1,8.5606-1.3179,21.6472,21.6472,0,0,1,5.2314.5273,9.5051,9.5051,0,0,1,3.2764,1.4234,4.8922,4.8922,0,0,1,1.69,2.0551,6.3281,6.3281,0,0,1,.4756,2.4244v2.1084a1.6173,1.6173,0,0,1-1.0566,1.7919,10.3111,10.3111,0,0,1-2.8535.3155,76.5082,76.5082,0,0,0-10.04.6865,33.9109,33.9109,0,0,0-9.5107,2.6348,18.3343,18.3343,0,0,0-7.1338,5.5869q-2.8008,3.6357-2.8008,9.6445a18.5176,18.5176,0,0,0,1.2686,6.957,15.54,15.54,0,0,0,3.5927,5.4288,16.5338,16.5338,0,0,0,5.4952,3.5312,18.656,18.656,0,0,0,6.9755,1.2656,23.4892,23.4892,0,0,0,10.251-1.95,25.008,25.008,0,0,0,7.6084-5.955,9.5373,9.5373,0,0,0,3.8057,5.2695,13.2094,13.2094,0,0,0,7.7139,2.0029,39.9751,39.9751,0,0,0,5.8125-.4209q2.8534-.4233,4.9667-0.9492l-0.7392-11.9111A5.2145,5.2145,0,0,1,538.8887,176.2483Zm-22.4033-7.2217a7.6371,7.6371,0,0,1-1.9024,5.4824,8.5349,8.5349,0,0,1-6.4464,2.5293,5.6,5.6,0,0,1-5.8135-5.7978,5.31,5.31,0,0,1,1.0577-3.4258,6.7844,6.7844,0,0,1,2.6416-2.0029,13.3932,13.3932,0,0,1,3.4355-.9483,24.5449,24.5449,0,0,1,3.4336-.2635q0.9521,0,1.9023-.0529a8.7552,8.7552,0,0,1,1.6915.0529v4.4267Zm83.7519-30.4634a21.769,21.769,0,0,0-6.7637-6.6411,18.1483,18.1483,0,0,0-9.7754-2.5293,16.9414,16.9414,0,0,0-9.247,2.3189,26.4427,26.4427,0,0,0-6.5,5.9028V110.1023H547.8721v78.0044h19.5508v-2.4248a14.5671,14.5671,0,0,0,5.4951,3.0576,21.7257,21.7257,0,0,0,6.87,1.1582,23.0184,23.0184,0,0,0,11.8887-2.8984,24.722,24.722,0,0,0,7.9785-7.3779,30.7339,30.7339,0,0,0,4.4394-9.962,43.8052,43.8052,0,0,0,1.3741-10.6464A47.3641,47.3641,0,0,0,604.2,147.9973,29.5652,29.5652,0,0,0,600.2373,138.5632Zm-16.0107,27.6177a17.7505,17.7505,0,0,1-1.4795,4.8487,10.3967,10.3967,0,0,1-2.9063,3.69,7.302,7.302,0,0,1-4.7031,1.4746q-3.8057,0-5.5479-1.6328a5.7077,5.7077,0,0,1-1.7441-4.375V154.27a10.0029,10.0029,0,0,1,.4229-3.2153,7.591,7.591,0,0,1,1.9023-2.688,8.8471,8.8471,0,0,1,2.3252-1.6338,7.0043,7.0043,0,0,1,3.17-.6851,6.7823,6.7823,0,0,1,4.65,1.5811,10.3536,10.3536,0,0,1,2.7471,3.9,18.9847,18.9847,0,0,1,1.2685,4.9541,40.9054,40.9054,0,0,1,.3164,4.85A30.9594,30.9594,0,0,1,584.2266,166.1809Zm30.1181,21.9258h19.9737V110.1023H614.3447v78.0044Zm82.959-42.2173a23.126,23.126,0,0,0-4.6494-8.3276,23.5211,23.5211,0,0,0-8.19-5.9029,29.2869,29.2869,0,0,0-12.1006-2.2661,30.7916,30.7916,0,0,0-12.6289,2.424,26.1175,26.1175,0,0,0-9.1416,6.6411,28.8053,28.8053,0,0,0-5.6006,9.7505,36.2259,36.2259,0,0,0-1.9024,11.8593,32.3,32.3,0,0,0,2.4834,13.1231,25.2606,25.2606,0,0,0,6.8692,9.3291,29.23,29.23,0,0,0,10.4092,5.5342,44.61,44.61,0,0,0,13.1054,1.8438,60.1339,60.1339,0,0,0,11.7832-1.1064,64.6018,64.6018,0,0,0,9.5635-2.5821l-3.4873-13.914a44.2262,44.2262,0,0,1-6.9219,2.3711,31.15,31.15,0,0,1-7.873,1.002q-7.7154,0-11.836-3.2148a10.3431,10.3431,0,0,1-4.122-8.5918v-0.7373h35.4033q0.1025-.7368.1582-1.792,0.0527-1.0533.1055-2.1611c0.0351-.7383.0527-1.44,0.0527-2.1084V155.429A31.5458,31.5458,0,0,0,697.3037,145.8894Zm-17.12,5.8511h-17.332a14.0494,14.0494,0,0,1,.4228-3.3213,10.3584,10.3584,0,0,1,1.4268-3.2676,7.5079,7.5079,0,0,1,2.748-2.4775,8.8565,8.8565,0,0,1,4.28-.9483,7.7421,7.7421,0,0,1,6.6572,3.004A9.681,9.681,0,0,1,680.1836,151.74Z"/></g><path id="logomark" class="cls-3" d="M196.6367,189.886l-84.1538,4.3818c-6.1855.3213-11.2661-3.876-11.2661-9.3809V123.0876l104.3413,3.26v54.314A9.4027,9.4027,0,0,1,196.6367,189.886ZM169.13,152.2629L155.1909,139.09a5.3443,5.3443,0,0,0-7.1548-.0967,4.454,4.454,0,0,0,0,6.665l10.6851,9.9234-10.6851,10.0722a4.4539,4.4539,0,0,0,0,6.6651,5.3482,5.3482,0,0,0,7.1548-.1963L169.13,158.7551A4.43,4.43,0,0,0,169.13,152.2629Zm-67.9136-37.1494c0-5.5054,5.0806-9.7031,11.2661-9.3813l84.1538,4.3823a9.403,9.403,0,0,1,8.9214,9.2246v3.5039l-104.3413-3.7422v-3.9873Zm28.6919-.2832a1.6043,1.6043,0,0,0,1.5972,1.51l3.1757,0.1284a1.44,1.44,0,0,0,1.5787-1.37V112.23a1.6014,1.6014,0,0,0-1.5787-1.5093l-3.1757-.1508a1.4435,1.4435,0,0,0-1.5972,1.37V114.83Zm-10.8062-.4565a1.6385,1.6385,0,0,0,1.6387,1.5307l3.2583,0.1319a1.47,1.47,0,0,0,1.62-1.3877v-2.9053a1.6337,1.6337,0,0,0-1.62-1.5293l-3.2583-.1553a1.4742,1.4742,0,0,0-1.6387,1.3867v2.9283Zm-11.09-.4683a1.6727,1.6727,0,0,0,1.6816,1.5513l3.3448,0.1352a1.5013,1.5013,0,0,0,1.6626-1.4043v-2.9433a1.67,1.67,0,0,0-1.6626-1.5508l-3.3448-.1582a1.5047,1.5047,0,0,0-1.6816,1.4033v2.9668Z"/></svg>