<svg id="Layer_1" data-name="Layer 1" xmlns="http://www.w3.org/2000/svg" viewBox="0 0 239.8889 35.5042"><defs><style>.cls-1{fill:#ccadd2;}.cls-2{fill:#fff;}</style></defs><title>runnable-logo</title><path class="cls-1" d="M38.3,1.7042l-33.8-1.7a4.056,4.056,0,0,0-4.5,3.8v1.6l41.9,1.3v-1.3a3.6041,3.6041,0,0,0-3.6-3.7h0Zm-33,1.6a0.7514,0.7514,0,0,1-.7.7H3.3a0.7513,0.7513,0,0,1-.7-0.7v-1.2a0.7514,0.7514,0,0,1,.7-0.7H4.6a0.7513,0.7513,0,0,1,.7.7v1.2Zm4.5,0.1a0.5055,0.5055,0,0,1-.7.5H7.9a0.7513,0.7513,0,0,1-.7-0.7v-1.2a0.5055,0.5055,0,0,1,.7-0.5H9.2a0.7513,0.7513,0,0,1,.7.7v1.2H9.8Zm4.3,0.1a0.5055,0.5055,0,0,1-.7.5H12.1a0.7513,0.7513,0,0,1-.7-0.7v-1.2a0.5055,0.5055,0,0,1,.7-0.5h1.3a0.7513,0.7513,0,0,1,.7.7v1.2ZM0,31.7042c0,2.2,2.1,3.8,4.5,3.8l33.8-1.7a3.7376,3.7376,0,0,0,3.6-3.7v-21.9L0,6.9042v24.8H0Zm18.8-15.8a1.9333,1.9333,0,0,1,0-2.8,2.15,2.15,0,0,1,2.9,0l5.7,5.3a1.5992,1.5992,0,0,1,0,2.5l-5.7,5.4a2.0521,2.0521,0,0,1-2.9,0,1.9325,1.9325,0,0,1,0-2.8l4.3-4C23.1,19.9042,18.8,15.9042,18.8,15.9042Z"/><path class="cls-2" d="M71.1,9.7042a10.3393,10.3393,0,0,1-1.2-.3,5.702,5.702,0,0,0-1.3-.1,7.1065,7.1065,0,0,0-2.1.3,2.82,2.82,0,0,0-1.6.9,5.3465,5.3465,0,0,0-1.3,1.3,14.93,14.93,0,0,1-1.2,1.4v-3.3H55.1v1.2a9.7354,9.7354,0,0,0,.1,1.6v20.3h8v-12.8a7.6282,7.6282,0,0,1,.1-1.7,1.85,1.85,0,0,1,.8-1.2,3.98,3.98,0,0,1,.9-0.7,6.5281,6.5281,0,0,1,1.7-.3,6.602,6.602,0,0,1,1.4.1,2.7867,2.7867,0,0,1,1.3.7l1.7-7.4h0Zm24.3,23.1v-22.8h-8v13.3a4.5453,4.5453,0,0,1-.1,1.4,3.2257,3.2257,0,0,1-.8,1.3,1.8526,1.8526,0,0,1-.8.7,4.1544,4.1544,0,0,1-1.3.3c-1.7,0-2.5-1.2-2.5-3.2v-13.8h-8v15.8a7.0077,7.0077,0,0,0,.5,3,6.9833,6.9833,0,0,0,1.3,2.4,5.0276,5.0276,0,0,0,2.2,1.6,10.7027,10.7027,0,0,0,3.3.7,8.1581,8.1581,0,0,0,4-.9,8.6148,8.6148,0,0,0,2.9-2.8v3h7.3Zm27.3,0v-15.8a7.0077,7.0077,0,0,0-.5-3,6.9833,6.9833,0,0,0-1.3-2.4,5.1,5.1,0,0,0-2.4-1.6,10.91,10.91,0,0,0-3.6-.7,7.1886,7.1886,0,0,0-4.3,1.2,8.3093,8.3093,0,0,0-3,2.9v-3.2h-7.4v22.8h8v-13.3a4.5453,4.5453,0,0,1,.1-1.4,2.4916,2.4916,0,0,1,.8-1.2,4.3085,4.3085,0,0,0,1-.7,6.1066,6.1066,0,0,1,1.3-.3,2.7077,2.7077,0,0,1,2.1.8,3.2856,3.2856,0,0,1,.7,2.4v13.7l8.5-.2h0Zm27,0v-15.8a7.0077,7.0077,0,0,0-.5-3,6.9833,6.9833,0,0,0-1.3-2.4,5.6486,5.6486,0,0,0-2.4-1.6,10.91,10.91,0,0,0-3.6-.7,7.1886,7.1886,0,0,0-4.3,1.2,8.3093,8.3093,0,0,0-3,2.9v-3.2h-7.4v22.8h8v-13.3a4.5454,4.5454,0,0,1,.1-1.4,2.4916,2.4916,0,0,1,.8-1.2c0.3-.3.7-0.5,0.9-0.7a6.1065,6.1065,0,0,1,1.3-.3,2.7077,2.7077,0,0,1,2.1.8,3.2856,3.2856,0,0,1,.7,2.4v13.7l8.6-.2h0Zm17-7.6a3.2947,3.2947,0,0,1-.8,2.2,3.1082,3.1082,0,0,1-2.5.9,1.5615,1.5615,0,0,1-1.6-.7,1.99,1.99,0,0,1-.7-1.6,1.7414,1.7414,0,0,1,.5-1.4,2.55,2.55,0,0,1,1.2-.8,7.0059,7.0059,0,0,1,1.4-.3c0.5,0,.9-0.1,1.4-0.1h1.5l-0.4,1.8h0Zm9.5,2.7a4.3311,4.3311,0,0,1-.5.1h-0.5a0.7493,0.7493,0,0,1-.8-0.5,3.0849,3.0849,0,0,1-.1-0.9v-9.2a8.9893,8.9893,0,0,0-.9-4.2,5.31,5.31,0,0,0-2.4-2.5,16.2058,16.2058,0,0,0-3.3-1.3c-1.3-.1-2.4-0.3-3.6-0.3a19.7224,19.7224,0,0,0-5,.5,26.9012,26.9012,0,0,0-4.6,1.4l1.7,5.7a12.233,12.233,0,0,1,2.8-1.3,11.4185,11.4185,0,0,1,3.3-.5,12.7852,12.7852,0,0,1,2.1.1,2.3891,2.3891,0,0,1,1.3.7,5.0081,5.0081,0,0,1,.7.8,3.0849,3.0849,0,0,1,.1.9v0.8a0.5872,0.5872,0,0,1-.5.7,4.1208,4.1208,0,0,1-1.2.1,25.9524,25.9524,0,0,0-4,.3,7.762,7.762,0,0,0-3.8,1.2,6.55,6.55,0,0,0-2.8,2.2,5.7665,5.7665,0,0,0-1.2,3.8,6.6324,6.6324,0,0,0,.5,2.8,6.3556,6.3556,0,0,0,1.4,2.2,4.64,4.64,0,0,0,2.2,1.4,7.9476,7.9476,0,0,0,2.9.5,10.8424,10.8424,0,0,0,4.2-.8,7.6183,7.6183,0,0,0,3-2.4,4.1164,4.1164,0,0,0,1.6,2.1,5.3289,5.3289,0,0,0,3,.8,19.269,19.269,0,0,0,2.4-.1,19.5854,19.5854,0,0,1,2-.3v-4.8h0Zm17.8-3.9a5.3324,5.3324,0,0,1-.7,2,2.4416,2.4416,0,0,1-1.2,1.4,3.9709,3.9709,0,0,1-2,.7,2.6838,2.6838,0,0,1-2.2-.7,2.06,2.06,0,0,1-.7-1.7v-6.3a5.283,5.283,0,0,1,.1-1.3,3.0425,3.0425,0,0,1,.8-1.2c0.3-.3.7-0.5,0.9-0.7a4.1545,4.1545,0,0,1,1.3-.3,2.4852,2.4852,0,0,1,2,.7,6.6947,6.6947,0,0,1,1.2,1.6,4.9187,4.9187,0,0,1,.5,2,13.4022,13.4022,0,0,1,.1,2,2.8541,2.8541,0,0,1-.1,1.8h0Zm8.1-7.3a9.3051,9.3051,0,0,0-1.6-3.8,9.3456,9.3456,0,0,0-2.8-2.8,7.4016,7.4016,0,0,0-4-.9,6.9942,6.9942,0,0,0-3.7.9,8.2034,8.2034,0,0,0-2.5,2.4v-11.1h-8v31.4h7.8v-0.9a7.5159,7.5159,0,0,0,2.2,1.3,9.7458,9.7458,0,0,0,2.8.5,7.7947,7.7947,0,0,0,4.8-1.2,9.2068,9.2068,0,0,0,3.2-3,11.0093,11.0093,0,0,0,1.7-4,21.0174,21.0174,0,0,0,.5-4.3,31.3746,31.3746,0,0,0-.4-4.5h0Zm12.1,16.1v-31.4h-8v31.4h8Zm11.3-14.5a5.7021,5.7021,0,0,1,.1-1.3,2.3892,2.3892,0,0,1,.7-1.3,1.7846,1.7846,0,0,1,1.2-.9,2.8926,2.8926,0,0,1,1.7-.3,3.5664,3.5664,0,0,1,2.8,1.3,3.9994,3.9994,0,0,1,.8,2.9h-7.2v-0.3h-0.1v-0.1Zm13.9-2.4a5.7336,5.7336,0,0,0-2-3.3,12.2277,12.2277,0,0,0-3.3-2.4,10.3059,10.3059,0,0,0-4.8-.9,12.9285,12.9285,0,0,0-5.1.9,10.375,10.375,0,0,0-3.7,2.8,14.4807,14.4807,0,0,0-2.2,3.8,14.1941,14.1941,0,0,0-.8,4.8,13.987,13.987,0,0,0,.9,5.3,8.6931,8.6931,0,0,0,2.8,3.7,12.869,12.869,0,0,0,4.2,2.2,17.8458,17.8458,0,0,0,5.3.8,19.5871,19.5871,0,0,0,4.8-.5c1.4-.3,2.8-0.7,3.8-0.9l-1.4-5.7a15.3885,15.3885,0,0,1-2.8.9,10.7325,10.7325,0,0,1-3.2.5,8.07,8.07,0,0,1-4.8-1.3,4.0026,4.0026,0,0,1-1.6-3.6v-0.3h14.2v-3a6.1646,6.1646,0,0,0-.3-3.8h0Z"/></svg>