<svg id="Layer_1" xmlns="http://www.w3.org/2000/svg" viewBox="-457 258 45 45"><style>.st0{fill:#CCCCCC;}</style><path class="st0" d="M-415.8 263.3l-36.4-1.9c-2.7-.1-4.8 1.7-4.8 4.1v1.7l45 1.5v-1.5c.1-2.1-1.6-3.8-3.8-3.9zm-35.5 1.7c0 .4-.4.7-.7.7h-1.4c-.4.1-.7-.3-.7-.7v-1.2c0-.4.3-.8.7-.8h1.4c.4 0 .7.4.7.7v1.3zm4.8.1c0 .4-.4.7-.7.5h-1.4c-.4 0-.7-.4-.7-.7v-1.3c0-.4.4-.7.7-.5h1.4c.4 0 .7.4.7.7v1.3zm4.6.2c0 .4-.4.7-.7.5h-1.4c-.4 0-.7-.4-.7-.7v-1.3c0-.4.4-.7.7-.5h1.4c.4 0 .7.4.7.7v1.3zm-15.1 30.2c0 2.4 2.2 4.1 4.8 4.1l36.3-1.9c2.1-.1 3.8-1.9 3.8-4v-23.4L-457 269v26.5zm20.2-17c-.9-.9-.9-2.1 0-3 .9-.9 2.2-.7 3.1 0l6.1 5.7c.9.7.9 2.1 0 2.7l-6.1 5.8c-.9.9-2.2.9-3.1 0-.9-.7-.9-2.1 0-3l4.6-4.3c0 .5-4.6-3.9-4.6-3.9z"/></svg>