<svg id="light" xmlns="http://www.w3.org/2000/svg" viewBox="0 0 597.5664 88.5703"><defs><style>.cls-1,.cls-2{fill:#ccc}.cls-2{fill-rule:evenodd}</style></defs><title>lockup</title><path class="cls-1" d="M171.148 23.629a14.665 14.665 0 0 0-5.125.843 15.683 15.683 0 0 0-4.069 2.213 21.08 21.08 0 0 0-3.276 3.11 39.222 39.222 0 0 0-2.747 3.637V25.21h-18.283q0 .948.105 2.74.104 1.794.212 3.848.104 2.055.158 4.216.052 2.162.053 3.953v42.165h19.974V50.72a23.077 23.077 0 0 1 .317-4.322 5.047 5.047 0 0 1 1.797-2.846 8.723 8.723 0 0 1 2.377-1.581 10.082 10.082 0 0 1 4.28-.737 10.883 10.883 0 0 1 3.435.58 10.524 10.524 0 0 1 3.011 1.528l3.805-18.658a18.805 18.805 0 0 0-2.8-.738 16.971 16.971 0 0 0-3.224-.316zm46.288 34.785a15.687 15.687 0 0 1-.315 3.584 8.034 8.034 0 0 1-1.888 3.057 6.779 6.779 0 0 1-5.139 2.214q-6.397 0-6.397-7.801V25.21h-19.973v39.318a27.806 27.806 0 0 0 1.004 7.642 16.792 16.792 0 0 0 3.17 6.167 14.49 14.49 0 0 0 5.602 4.11 20.965 20.965 0 0 0 8.295 1.476 19.24 19.24 0 0 0 9.987-2.477 25.391 25.391 0 0 0 7.345-6.693v7.379h18.283V25.21h-19.974v33.204zm83.435-29.41a15.33 15.33 0 0 0-5.812-4.11 22.399 22.399 0 0 0-8.614-1.476 19.67 19.67 0 0 0-10.568 2.687 28.836 28.836 0 0 0-7.714 7.115v-8.01H249.88v56.922h19.974v-33.1a13.562 13.562 0 0 1 .366-3.584 7.378 7.378 0 0 1 2.152-2.951 8.213 8.213 0 0 1 2.467-1.634 7.962 7.962 0 0 1 3.305-.685q3.674 0 5.353 1.95 1.68 1.951 1.68 5.85v34.154h19.974V42.813a27.873 27.873 0 0 0-1.003-7.642 16.063 16.063 0 0 0-3.277-6.166zm67.53 0a15.338 15.338 0 0 0-5.813-4.11 22.399 22.399 0 0 0-8.613-1.476 19.667 19.667 0 0 0-10.569 2.687 28.832 28.832 0 0 0-7.715 7.115v-8.01h-18.283v56.922h19.975v-33.1a13.562 13.562 0 0 1 .366-3.584 7.375 7.375 0 0 1 2.151-2.95 8.218 8.218 0 0 1 2.468-1.635 7.958 7.958 0 0 1 3.305-.685q3.673 0 5.354 1.95 1.679 1.952 1.679 5.85v34.154h19.974V42.813a27.873 27.873 0 0 0-1.004-7.642 16.046 16.046 0 0 0-3.276-6.166zm69.27 41.27a4.878 4.878 0 0 1-1.16.157 1.616 1.616 0 0 1-1.797-1.16 9.54 9.54 0 0 1-.318-2.529v-22.98a19.742 19.742 0 0 0-2.377-10.277 18.061 18.061 0 0 0-6.078-6.22 23.237 23.237 0 0 0-8.189-3.056 50.258 50.258 0 0 0-8.719-.79 66.662 66.662 0 0 0-12.47 1.106 56.422 56.422 0 0 0-11.52 3.53l4.439 13.81a32.602 32.602 0 0 1 6.657-3.11 26.074 26.074 0 0 1 8.561-1.318 21.65 21.65 0 0 1 5.231.528 9.506 9.506 0 0 1 3.277 1.423 4.892 4.892 0 0 1 1.69 2.055 6.328 6.328 0 0 1 .475 2.425v2.108a1.617 1.617 0 0 1-1.056 1.792 10.311 10.311 0 0 1-2.854.315 76.498 76.498 0 0 0-10.04.687 33.91 33.91 0 0 0-9.51 2.635 18.335 18.335 0 0 0-7.134 5.587q-2.801 3.635-2.801 9.644a18.518 18.518 0 0 0 1.269 6.957 15.54 15.54 0 0 0 3.592 5.429 16.534 16.534 0 0 0 5.495 3.531 18.657 18.657 0 0 0 6.976 1.266 23.49 23.49 0 0 0 10.251-1.95 25.01 25.01 0 0 0 7.608-5.955 9.537 9.537 0 0 0 3.806 5.27 13.21 13.21 0 0 0 7.714 2.003 39.975 39.975 0 0 0 5.813-.421q2.853-.424 4.966-.95l-.739-11.91a5.218 5.218 0 0 1-1.057.368zM415.27 63.05a7.637 7.637 0 0 1-1.903 5.483 8.535 8.535 0 0 1-6.446 2.53 5.6 5.6 0 0 1-5.814-5.799 5.31 5.31 0 0 1 1.058-3.425 6.785 6.785 0 0 1 2.642-2.003 13.388 13.388 0 0 1 3.435-.949 24.546 24.546 0 0 1 3.434-.263q.952 0 1.902-.053a8.76 8.76 0 0 1 1.692.053v4.427zm83.751-30.463a21.768 21.768 0 0 0-6.763-6.641 18.148 18.148 0 0 0-9.776-2.53 16.94 16.94 0 0 0-9.247 2.32 26.444 26.444 0 0 0-6.5 5.902V4.128h-20.079v78.004h19.551v-2.425a14.567 14.567 0 0 0 5.495 3.058 21.724 21.724 0 0 0 6.87 1.158 23.019 23.019 0 0 0 11.889-2.898 24.722 24.722 0 0 0 7.979-7.378 30.733 30.733 0 0 0 4.439-9.962 43.806 43.806 0 0 0 1.374-10.647 47.365 47.365 0 0 0-1.269-11.015 29.565 29.565 0 0 0-3.962-9.434zm-16.01 27.618a17.75 17.75 0 0 1-1.48 4.849 10.397 10.397 0 0 1-2.906 3.69 7.302 7.302 0 0 1-4.703 1.474q-3.806 0-5.548-1.632a5.708 5.708 0 0 1-1.744-4.375V48.295a10.004 10.004 0 0 1 .423-3.215 7.59 7.59 0 0 1 1.902-2.688 8.847 8.847 0 0 1 2.326-1.634 7.004 7.004 0 0 1 3.17-.685 6.782 6.782 0 0 1 4.65 1.581 10.354 10.354 0 0 1 2.747 3.9 18.984 18.984 0 0 1 1.268 4.954 40.905 40.905 0 0 1 .317 4.85 30.959 30.959 0 0 1-.422 4.848zm30.118 21.926h19.974V4.128h-19.974v78.004zm82.96-42.217a23.126 23.126 0 0 0-4.65-8.328 23.52 23.52 0 0 0-8.19-5.903 29.287 29.287 0 0 0-12.1-2.266 30.793 30.793 0 0 0-12.63 2.424 26.118 26.118 0 0 0-9.141 6.641 28.805 28.805 0 0 0-5.601 9.75 36.226 36.226 0 0 0-1.903 11.86 32.3 32.3 0 0 0 2.483 13.123 25.261 25.261 0 0 0 6.87 9.33 29.23 29.23 0 0 0 10.409 5.533 44.61 44.61 0 0 0 13.105 1.844 60.139 60.139 0 0 0 11.783-1.106 64.61 64.61 0 0 0 9.564-2.582L592.6 66.32a44.233 44.233 0 0 1-6.922 2.37 31.153 31.153 0 0 1-7.873 1.003q-7.715 0-11.836-3.215a10.343 10.343 0 0 1-4.122-8.592v-.737h35.403q.102-.737.158-1.792.053-1.053.106-2.161c.035-.738.052-1.44.052-2.109v-1.634a31.546 31.546 0 0 0-1.48-9.54zm-17.12 5.85h-17.333a14.05 14.05 0 0 1 .423-3.32 10.359 10.359 0 0 1 1.427-3.268 7.508 7.508 0 0 1 2.748-2.478 8.856 8.856 0 0 1 4.28-.948 7.742 7.742 0 0 1 6.657 3.004 9.681 9.681 0 0 1 1.797 7.01z" id="lockup"/><path class="cls-2" d="M95.42 84.171l-84.154 4.382C5.081 88.874 0 84.677 0 79.173v-61.8l104.341 3.26v54.314a9.403 9.403 0 0 1-8.921 9.224zM67.914 46.548l-13.94-13.173a5.344 5.344 0 0 0-7.155-.097 4.454 4.454 0 0 0 0 6.665l10.685 9.924L46.82 59.939a4.454 4.454 0 0 0 0 6.665 5.348 5.348 0 0 0 7.155-.197l13.94-13.367a4.43 4.43 0 0 0 0-6.492zM0 9.398C0 3.894 5.08-.303 11.266.019L95.42 4.4a9.403 9.403 0 0 1 8.921 9.225v3.504L0 13.386V9.399zm28.692-.283a1.604 1.604 0 0 0 1.597 1.51l3.176.129a1.44 1.44 0 0 0 1.579-1.37v-2.87a1.601 1.601 0 0 0-1.58-1.508l-3.175-.151a1.444 1.444 0 0 0-1.597 1.37v2.89zM17.886 8.66a1.639 1.639 0 0 0 1.638 1.531l3.259.132a1.47 1.47 0 0 0 1.62-1.388V6.03a1.634 1.634 0 0 0-1.62-1.53l-3.259-.155a1.474 1.474 0 0 0-1.638 1.387v2.928zm-11.09-.468a1.673 1.673 0 0 0 1.681 1.551l3.345.135a1.501 1.501 0 0 0 1.662-1.404V5.53a1.67 1.67 0 0 0-1.662-1.55l-3.345-.16a1.505 1.505 0 0 0-1.682 1.404V8.19z"/></svg>