<svg id="Layer_1" data-name="Layer 1" xmlns="http://www.w3.org/2000/svg" viewBox="0 0 239.8889 35.5042"><defs><style>.cls-1{fill:#cdaed3}.cls-2{fill:#fff}</style></defs><title>runnable-logo-cmyk</title><path class="cls-1" d="M38.411 7l-33.8-1.7a4.056 4.056 0 0 0-4.5 3.8v1.6l41.9 1.3v-1.3a3.604 3.604 0 0 0-3.6-3.7zm-33 1.6a.751.751 0 0 1-.7.7h-1.3a.751.751 0 0 1-.7-.7V7.4a.751.751 0 0 1 .7-.7h1.3a.751.751 0 0 1 .7.7zm4.5.1c0 .3-.3.7-.7.5h-1.2a.751.751 0 0 1-.7-.7V7.3c0-.3.3-.7.7-.5h1.3a.751.751 0 0 1 .7.7v1.2zm4.3.1c0 .3-.3.7-.7.5h-1.3a.751.751 0 0 1-.7-.7V7.4c0-.3.3-.7.7-.5h1.3a.751.751 0 0 1 .7.7zM.111 37c0 2.2 2.1 3.8 4.5 3.8l33.8-1.7a3.738 3.738 0 0 0 3.6-3.7V13.5l-41.9-1.3V37zm18.8-15.8a1.933 1.933 0 0 1 0-2.8 2.15 2.15 0 0 1 2.9 0l5.7 5.3a1.6 1.6 0 0 1 0 2.5l-5.7 5.4a2.052 2.052 0 0 1-2.9 0 1.933 1.933 0 0 1 0-2.8l4.3-4c0 .4-4.3-3.6-4.3-3.6z" transform="translate(-.111 -5.296)"/><path class="cls-2" d="M71.211 15a10.34 10.34 0 0 1-1.2-.3 5.702 5.702 0 0 0-1.3-.1 7.106 7.106 0 0 0-2.1.3 2.82 2.82 0 0 0-1.6.9 5.346 5.346 0 0 0-1.3 1.3 14.93 14.93 0 0 1-1.2 1.4v-3.3h-7.3v1.2a9.735 9.735 0 0 0 .1 1.6v20.3h8V25.5a7.628 7.628 0 0 1 .1-1.7 1.85 1.85 0 0 1 .8-1.2 3.98 3.98 0 0 1 .9-.7 6.528 6.528 0 0 1 1.7-.3 6.602 6.602 0 0 1 1.4.1 2.787 2.787 0 0 1 1.3.7l1.7-7.4zm24.3 23.1V15.3h-8v13.3a4.545 4.545 0 0 1-.1 1.4 3.226 3.226 0 0 1-.8 1.3c-.1.3-.5.5-.8.7a4.154 4.154 0 0 1-1.3.3c-1.7 0-2.5-1.2-2.5-3.2V15.3h-8v15.8a7.008 7.008 0 0 0 .5 3 6.983 6.983 0 0 0 1.3 2.4 5.028 5.028 0 0 0 2.2 1.6 10.703 10.703 0 0 0 3.3.7 8.158 8.158 0 0 0 4-.9 8.615 8.615 0 0 0 2.9-2.8v3zm27.3 0V22.3a7.008 7.008 0 0 0-.5-3 6.983 6.983 0 0 0-1.3-2.4 5.1 5.1 0 0 0-2.4-1.6 10.91 10.91 0 0 0-3.6-.7 7.189 7.189 0 0 0-4.3 1.2 8.31 8.31 0 0 0-3 2.9v-3.2h-7.4v22.8h8V25a4.545 4.545 0 0 1 .1-1.4 2.492 2.492 0 0 1 .8-1.2c.4-.3.8-.4 1-.7a6.107 6.107 0 0 1 1.3-.3 2.708 2.708 0 0 1 2.1.8 3.286 3.286 0 0 1 .7 2.4v13.7l8.5-.2zm27 0V22.3a7.008 7.008 0 0 0-.5-3 6.983 6.983 0 0 0-1.3-2.4 5.649 5.649 0 0 0-2.4-1.6 10.91 10.91 0 0 0-3.6-.7 7.189 7.189 0 0 0-4.3 1.2 8.31 8.31 0 0 0-3 2.9v-3.2h-7.4v22.8h8V25a4.545 4.545 0 0 1 .1-1.4 2.492 2.492 0 0 1 .8-1.2c.3-.3.7-.5.9-.7a6.106 6.106 0 0 1 1.3-.3 2.708 2.708 0 0 1 2.1.8 3.286 3.286 0 0 1 .7 2.4v13.7l8.6-.2zm17-7.6a3.295 3.295 0 0 1-.8 2.2 3.108 3.108 0 0 1-2.5.9c-.7 0-1.3-.1-1.6-.7a1.99 1.99 0 0 1-.7-1.6 1.741 1.741 0 0 1 .5-1.4 2.55 2.55 0 0 1 1.2-.8 7.006 7.006 0 0 1 1.4-.3c.5 0 .9-.1 1.4-.1h1.5l-.4 1.8zm9.5 2.7a4.331 4.331 0 0 1-.5.1h-.5a.75.75 0 0 1-.8-.5 3.085 3.085 0 0 1-.1-.9v-9.2a8.99 8.99 0 0 0-.9-4.2 5.31 5.31 0 0 0-2.4-2.5 16.206 16.206 0 0 0-3.3-1.3c-1.3-.1-2.4-.3-3.6-.3a19.722 19.722 0 0 0-5 .5 26.901 26.901 0 0 0-4.6 1.4l1.7 5.7a12.233 12.233 0 0 1 2.8-1.3 11.418 11.418 0 0 1 3.3-.5 12.785 12.785 0 0 1 2.1.1 2.39 2.39 0 0 1 1.3.7 5.008 5.008 0 0 1 .7.8 3.085 3.085 0 0 1 .1.9v.8c0 .3-.1.7-.5.7a4.12 4.12 0 0 1-1.2.1 25.952 25.952 0 0 0-4 .3 7.762 7.762 0 0 0-3.8 1.2 6.55 6.55 0 0 0-2.8 2.2 5.766 5.766 0 0 0-1.2 3.8 6.632 6.632 0 0 0 .5 2.8 6.356 6.356 0 0 0 1.4 2.2 4.64 4.64 0 0 0 2.2 1.4 7.948 7.948 0 0 0 2.9.5 10.842 10.842 0 0 0 4.2-.8 7.618 7.618 0 0 0 3-2.4 4.116 4.116 0 0 0 1.6 2.1 5.329 5.329 0 0 0 3 .8 19.269 19.269 0 0 0 2.4-.1 19.585 19.585 0 0 1 2-.3v-4.8zm17.8-3.9a5.332 5.332 0 0 1-.7 2 2.442 2.442 0 0 1-1.2 1.4 3.97 3.97 0 0 1-2 .7 2.684 2.684 0 0 1-2.2-.7 2.06 2.06 0 0 1-.7-1.7v-6.3a5.283 5.283 0 0 1 .1-1.3 3.042 3.042 0 0 1 .8-1.2c.3-.3.7-.5.9-.7a4.154 4.154 0 0 1 1.3-.3 2.485 2.485 0 0 1 2 .7 6.695 6.695 0 0 1 1.2 1.6 4.919 4.919 0 0 1 .5 2 13.402 13.402 0 0 1 .1 2 2.854 2.854 0 0 1-.1 1.8zm8.1-7.3a9.305 9.305 0 0 0-1.6-3.8 9.346 9.346 0 0 0-2.8-2.8 7.402 7.402 0 0 0-4-.9 6.994 6.994 0 0 0-3.7.9 8.203 8.203 0 0 0-2.5 2.4V6.7h-8v31.4h7.8v-.9a7.516 7.516 0 0 0 2.2 1.3 9.746 9.746 0 0 0 2.8.5 7.795 7.795 0 0 0 4.8-1.2 9.207 9.207 0 0 0 3.2-3 11.01 11.01 0 0 0 1.7-4 21.017 21.017 0 0 0 .5-4.3 31.375 31.375 0 0 0-.4-4.5zm12.1 16.1V6.7h-8v31.4zm11.3-14.5a5.702 5.702 0 0 1 .1-1.3 2.39 2.39 0 0 1 .7-1.3 1.785 1.785 0 0 1 1.2-.9 2.893 2.893 0 0 1 1.7-.3 3.566 3.566 0 0 1 2.8 1.3 4 4 0 0 1 .8 2.9h-7.2v-.3h-.1zm13.9-2.4a5.734 5.734 0 0 0-2-3.3 12.228 12.228 0 0 0-3.3-2.4 10.306 10.306 0 0 0-4.8-.9 12.928 12.928 0 0 0-5.1.9 10.375 10.375 0 0 0-3.7 2.8 14.48 14.48 0 0 0-2.2 3.8 14.194 14.194 0 0 0-.8 4.8 13.987 13.987 0 0 0 .9 5.3 8.693 8.693 0 0 0 2.8 3.7 12.869 12.869 0 0 0 4.2 2.2 17.846 17.846 0 0 0 5.3.8 19.587 19.587 0 0 0 4.8-.5c1.4-.3 2.8-.7 3.8-.9l-1.4-5.7a15.389 15.389 0 0 1-2.8.9 10.732 10.732 0 0 1-3.2.5 8.07 8.07 0 0 1-4.8-1.3 4.003 4.003 0 0 1-1.6-3.6V28h14.2v-3a6.165 6.165 0 0 0-.3-3.8z" transform="translate(-.111 -5.296)"/></svg>