<svg id="Layer_1" data-name="Layer 1" xmlns="http://www.w3.org/2000/svg" viewBox="0 0 45 38.1984"><defs><style>.cls-1{fill:#ccc;}</style></defs><title>runnable-icon-pink</title><path id="logomark" class="cls-1" d="M41.1524,36.301L4.8588,38.191C2.1911,38.3291,0,36.5191,0,34.145V7.4924L45,8.8983V32.3227A4.0552,4.0552,0,0,1,41.1524,36.301ZM29.29,20.075l-6.0118-5.6813a2.3049,2.3049,0,0,0-3.0857-.0417,1.9209,1.9209,0,0,0,0,2.8745l4.6082,4.28L20.1921,25.85a1.9209,1.9209,0,0,0,0,2.8745,2.3065,2.3065,0,0,0,3.0857-.0847l6.0118-5.765a1.9106,1.9106,0,0,0,.1-2.7Q29.3417,20.1231,29.29,20.075ZM0,4.0534C0,1.6791,2.1911-.1309,4.8588.0074l36.2936,1.89A4.0553,4.0553,0,0,1,45,5.8758V7.387L0,5.773v-1.72Zm12.3742-.1221a0.6919,0.6919,0,0,0,.6888.6511l1.37,0.0554a0.6208,0.6208,0,0,0,.6785-0.5571l0.0024-.0338V2.81a0.6907,0.6907,0,0,0-.6813-0.65l-1.37-.065a0.6225,0.6225,0,0,0-.6858.552l-0.003.0389V3.9312h0Zm-4.66-.1969a0.7067,0.7067,0,0,0,.7067.66l1.4048,0.057a0.6342,0.6342,0,0,0,.6962-0.5655l0.0025-.033V2.6a0.7046,0.7046,0,0,0-.6987-0.66L8.42,1.8734a0.6358,0.6358,0,0,0-.7035.56l-0.0032.0382V3.7344H7.7142Zm-4.783-.202a0.7214,0.7214,0,0,0,.7252.669L5.0985,4.26a0.6475,0.6475,0,0,0,.7143-0.573l0.0027-.0326V2.3847a0.72,0.72,0,0,0-.717-0.6688L3.6559,1.6477a0.6489,0.6489,0,0,0-.7217.5668l-0.0035.0384v1.28Z" transform="translate(0 0)"/></svg>