<svg id="Layer_1" data-name="Layer 1" xmlns="http://www.w3.org/2000/svg" viewBox="0 0 239.8889 35.5042"><defs><style>.cls-1{fill:#cdaed3;}.cls-2{fill:#fff;}</style></defs><title>runnable-logo-cmyk</title><path class="cls-1" d="M38.4111,7l-33.8-1.7a4.056,4.056,0,0,0-4.5,3.8v1.6l41.9,1.3V10.7a3.6041,3.6041,0,0,0-3.6-3.7Zm-33,1.6a.7514.7514,0,0,1-.7.7h-1.3a.7513.7513,0,0,1-.7-.7V7.4a.7514.7514,0,0,1,.7-.7h1.3a.7513.7513,0,0,1,.7.7Zm4.5.1c0,.3-.3.7-.7.5h-1.2a.7513.7513,0,0,1-.7-.7V7.3c0-.3.3-.7.7-.5h1.3a.7513.7513,0,0,1,.7.7V8.7Zm4.3.1c0,.3-.3.7-.7.5h-1.3a.7513.7513,0,0,1-.7-.7V7.4c0-.3.3-.7.7-.5h1.3a.7513.7513,0,0,1,.7.7ZM.1111,37c0,2.2,2.1,3.8,4.5,3.8l33.8-1.7a3.7376,3.7376,0,0,0,3.6-3.7V13.5l-41.9-1.3V37Zm18.8-15.8a1.9333,1.9333,0,0,1,0-2.8,2.15,2.15,0,0,1,2.9,0l5.7,5.3a1.5992,1.5992,0,0,1,0,2.5l-5.7,5.4a2.0521,2.0521,0,0,1-2.9,0,1.9325,1.9325,0,0,1,0-2.8l4.3-4C23.2111,25.2,18.9111,21.2,18.9111,21.2Z" transform="translate(-0.1111 -5.2958)"/><path class="cls-2" d="M71.2111,15a10.3393,10.3393,0,0,1-1.2-.3,5.702,5.702,0,0,0-1.3-.1,7.1065,7.1065,0,0,0-2.1.3,2.82,2.82,0,0,0-1.6.9,5.3465,5.3465,0,0,0-1.3,1.3,14.93,14.93,0,0,1-1.2,1.4V15.2h-7.3v1.2a9.7354,9.7354,0,0,0,.1,1.6V38.3h8V25.5a7.6282,7.6282,0,0,1,.1-1.7,1.85,1.85,0,0,1,.8-1.2,3.98,3.98,0,0,1,.9-.7,6.5281,6.5281,0,0,1,1.7-.3,6.602,6.602,0,0,1,1.4.1,2.7867,2.7867,0,0,1,1.3.7l1.7-7.4Zm24.3,23.1V15.3h-8V28.6a4.5453,4.5453,0,0,1-.1,1.4,3.2257,3.2257,0,0,1-.8,1.3c-.1.3-.5.5-.8.7a4.1544,4.1544,0,0,1-1.3.3c-1.7,0-2.5-1.2-2.5-3.2V15.3h-8V31.1a7.0077,7.0077,0,0,0,.5,3,6.9833,6.9833,0,0,0,1.3,2.4,5.0276,5.0276,0,0,0,2.2,1.6,10.7027,10.7027,0,0,0,3.3.7,8.1581,8.1581,0,0,0,4-.9,8.6148,8.6148,0,0,0,2.9-2.8v3Zm27.3,0V22.3a7.0077,7.0077,0,0,0-.5-3,6.9833,6.9833,0,0,0-1.3-2.4,5.1,5.1,0,0,0-2.4-1.6,10.91,10.91,0,0,0-3.6-.7,7.1886,7.1886,0,0,0-4.3,1.2,8.3093,8.3093,0,0,0-3,2.9V15.5h-7.4V38.3h8V25a4.5453,4.5453,0,0,1,.1-1.4,2.4916,2.4916,0,0,1,.8-1.2c.4-.3.8-.4,1-.7a6.1066,6.1066,0,0,1,1.3-.3,2.7077,2.7077,0,0,1,2.1.8,3.2856,3.2856,0,0,1,.7,2.4V38.3l8.5-.2Zm27,0V22.3a7.0077,7.0077,0,0,0-.5-3,6.9833,6.9833,0,0,0-1.3-2.4,5.6486,5.6486,0,0,0-2.4-1.6,10.91,10.91,0,0,0-3.6-.7,7.1886,7.1886,0,0,0-4.3,1.2,8.3093,8.3093,0,0,0-3,2.9V15.5h-7.4V38.3h8V25a4.5454,4.5454,0,0,1,.1-1.4,2.4916,2.4916,0,0,1,.8-1.2c.3-.3.7-.5.9-.7a6.1065,6.1065,0,0,1,1.3-.3,2.7077,2.7077,0,0,1,2.1.8,3.2856,3.2856,0,0,1,.7,2.4V38.3l8.6-.2Zm17-7.6a3.2947,3.2947,0,0,1-.8,2.2,3.1082,3.1082,0,0,1-2.5.9c-.7,0-1.3-.1-1.6-.7a1.99,1.99,0,0,1-.7-1.6,1.7414,1.7414,0,0,1,.5-1.4,2.55,2.55,0,0,1,1.2-.8,7.0059,7.0059,0,0,1,1.4-.3c.5,0,.9-.1,1.4-.1h1.5l-.4,1.8Zm9.5,2.7a4.3311,4.3311,0,0,1-.5.1h-.5a.7493.7493,0,0,1-.8-.5,3.0849,3.0849,0,0,1-.1-.9V22.7a8.9893,8.9893,0,0,0-.9-4.2,5.31,5.31,0,0,0-2.4-2.5,16.2058,16.2058,0,0,0-3.3-1.3c-1.3-.1-2.4-.3-3.6-.3a19.7224,19.7224,0,0,0-5,.5,26.9012,26.9012,0,0,0-4.6,1.4l1.7,5.7a12.233,12.233,0,0,1,2.8-1.3,11.4185,11.4185,0,0,1,3.3-.5,12.7853,12.7853,0,0,1,2.1.1,2.3891,2.3891,0,0,1,1.3.7,5.0081,5.0081,0,0,1,.7.8,3.0849,3.0849,0,0,1,.1.9v.8c0,.3-.1.7-.5.7a4.1208,4.1208,0,0,1-1.2.1,25.9524,25.9524,0,0,0-4,.3,7.762,7.762,0,0,0-3.8,1.2,6.55,6.55,0,0,0-2.8,2.2,5.7665,5.7665,0,0,0-1.2,3.8,6.6324,6.6324,0,0,0,.5,2.8,6.3556,6.3556,0,0,0,1.4,2.2,4.64,4.64,0,0,0,2.2,1.4,7.9476,7.9476,0,0,0,2.9.5,10.8424,10.8424,0,0,0,4.2-.8,7.6183,7.6183,0,0,0,3-2.4,4.1164,4.1164,0,0,0,1.6,2.1,5.3289,5.3289,0,0,0,3,.8,19.269,19.269,0,0,0,2.4-.1,19.5854,19.5854,0,0,1,2-.3V33.2Zm17.8-3.9a5.3324,5.3324,0,0,1-.7,2,2.4416,2.4416,0,0,1-1.2,1.4,3.9709,3.9709,0,0,1-2,.7,2.6838,2.6838,0,0,1-2.2-.7,2.06,2.06,0,0,1-.7-1.7V24.7a5.283,5.283,0,0,1,.1-1.3,3.0425,3.0425,0,0,1,.8-1.2c.3-.3.7-.5.9-.7a4.1545,4.1545,0,0,1,1.3-.3,2.4852,2.4852,0,0,1,2,.7,6.6947,6.6947,0,0,1,1.2,1.6,4.9187,4.9187,0,0,1,.5,2,13.4022,13.4022,0,0,1,.1,2,2.8541,2.8541,0,0,1-.1,1.8Zm8.1-7.3a9.3051,9.3051,0,0,0-1.6-3.8,9.3456,9.3456,0,0,0-2.8-2.8,7.4016,7.4016,0,0,0-4-.9,6.9942,6.9942,0,0,0-3.7.9,8.2034,8.2034,0,0,0-2.5,2.4V6.7h-8V38.1h7.8v-.9a7.5159,7.5159,0,0,0,2.2,1.3,9.7458,9.7458,0,0,0,2.8.5,7.7947,7.7947,0,0,0,4.8-1.2,9.2068,9.2068,0,0,0,3.2-3,11.0093,11.0093,0,0,0,1.7-4,21.0174,21.0174,0,0,0,.5-4.3,31.3746,31.3746,0,0,0-.4-4.5Zm12.1,16.1V6.7h-8V38.1Zm11.3-14.5a5.7021,5.7021,0,0,1,.1-1.3,2.3892,2.3892,0,0,1,.7-1.3,1.7846,1.7846,0,0,1,1.2-.9,2.8926,2.8926,0,0,1,1.7-.3,3.5664,3.5664,0,0,1,2.8,1.3,3.9994,3.9994,0,0,1,.8,2.9h-7.2v-.3h-.1Zm13.9-2.4a5.7336,5.7336,0,0,0-2-3.3,12.2277,12.2277,0,0,0-3.3-2.4,10.3059,10.3059,0,0,0-4.8-.9,12.9285,12.9285,0,0,0-5.1.9,10.375,10.375,0,0,0-3.7,2.8,14.4807,14.4807,0,0,0-2.2,3.8,14.1941,14.1941,0,0,0-.8,4.8,13.987,13.987,0,0,0,.9,5.3,8.6931,8.6931,0,0,0,2.8,3.7,12.869,12.869,0,0,0,4.2,2.2,17.8458,17.8458,0,0,0,5.3.8,19.5871,19.5871,0,0,0,4.8-.5c1.4-.3,2.8-.7,3.8-.9l-1.4-5.7a15.3885,15.3885,0,0,1-2.8.9,10.7325,10.7325,0,0,1-3.2.5,8.07,8.07,0,0,1-4.8-1.3,4.0026,4.0026,0,0,1-1.6-3.6V28h14.2V25a6.1646,6.1646,0,0,0-.3-3.8Z" transform="translate(-0.1111 -5.2958)"/></svg>