<svg id="dark" xmlns="http://www.w3.org/2000/svg" viewBox="0 0 800 300"><style>.st0{fill:#612e80}.st1{fill:#fff}.st2{fill:#cbaed3}</style><title>lockup</title><path id="bg" class="st0" d="M0 0h800v300H0z"/><path class="st1" d="M272.4 129.6c-1.7 0-3.5.3-5.1.8-1.5.5-2.8 1.3-4.1 2.2-1.2.9-2.3 2-3.3 3.1-1 1.2-1.9 2.4-2.7 3.6v-8.2h-18.3c0 .6 0 1.5.1 2.7.1 1.2.1 2.5.2 3.8.1 1.4.1 2.8.2 4.2 0 1.4.1 2.8.1 4V188h20v-31.4c0-1.4.1-2.9.3-4.3.3-1.1.9-2.1 1.8-2.8.7-.7 1.5-1.2 2.4-1.6 1.4-.6 2.8-.8 4.3-.7 1.2 0 2.3.2 3.4.6 1.1.3 2.1.9 3 1.5l3.8-18.7c-.9-.3-1.8-.6-2.8-.7-1.2-.2-2.3-.3-3.3-.3zm46.3 34.8c0 1.2-.1 2.4-.3 3.6-.4 1.1-1 2.2-1.9 3.1-1.3 1.4-3.2 2.3-5.1 2.2-4.3 0-6.4-2.6-6.4-7.8v-34.3h-20v39.3c0 2.6.3 5.2 1 7.6.6 2.3 1.7 4.4 3.2 6.2 1.5 1.8 3.4 3.2 5.6 4.1 2.6 1 5.5 1.6 8.3 1.5 3.5.1 6.9-.8 10-2.5 2.9-1.7 5.4-4 7.3-6.7v7.4h18.3v-56.9h-20v33.2zm83.4-29.4c-1.6-1.8-3.6-3.2-5.8-4.1-2.7-1.1-5.7-1.6-8.6-1.5-3.7-.1-7.4.8-10.6 2.7-3 1.9-5.6 4.3-7.7 7.1v-8h-18.3v56.9h20V155c0-1.2.1-2.4.4-3.6.5-1.1 1.2-2.2 2.2-3 .7-.7 1.6-1.2 2.5-1.6 1-.5 2.2-.7 3.3-.7 2.4 0 4.2.6 5.4 1.9 1.1 1.3 1.7 3.3 1.7 5.9v34.2h20v-39.3c0-2.6-.3-5.2-1-7.6-.9-2.3-2-4.4-3.5-6.2zm67.5 0c-1.6-1.8-3.6-3.2-5.8-4.1-2.7-1.1-5.7-1.6-8.6-1.5-3.7-.1-7.4.8-10.6 2.7-3 1.9-5.6 4.3-7.7 7.1v-8h-18.3v56.9h20V155c0-1.2.1-2.4.4-3.6.5-1.1 1.2-2.2 2.2-3 .7-.7 1.6-1.2 2.5-1.6 1-.5 2.2-.7 3.3-.7 2.4 0 4.2.6 5.4 1.9 1.1 1.3 1.7 3.3 1.7 5.9v34.2h20v-39.3c0-2.6-.3-5.2-1-7.6-.8-2.3-2-4.4-3.5-6.2zm69.3 41.2c-.4.1-.8.2-1.2.2-.8.1-1.6-.4-1.8-1.2-.2-.8-.3-1.7-.3-2.5v-23c.2-3.6-.7-7.1-2.4-10.3-1.5-2.5-3.6-4.7-6.1-6.2-2.5-1.5-5.3-2.6-8.2-3.1-2.9-.5-5.8-.8-8.7-.8-4.2 0-8.4.3-12.5 1.1-4 .8-7.8 1.9-11.5 3.5l4.4 13.8c2.1-1.3 4.3-2.3 6.7-3.1 2.8-.9 5.7-1.4 8.6-1.3 1.8 0 3.5.1 5.2.5 1.2.3 2.3.7 3.3 1.4.7.5 1.3 1.2 1.7 2.1.3.8.5 1.6.5 2.4v2.1c.1.8-.3 1.5-1.1 1.8-.9.2-1.9.3-2.9.3-3.4 0-6.7.2-10 .7-3.3.4-6.5 1.3-9.5 2.6-2.8 1.2-5.3 3.2-7.1 5.6-1.9 2.4-2.8 5.6-2.8 9.6 0 2.4.4 4.7 1.3 7 .8 2 2 3.9 3.6 5.4 1.6 1.5 3.4 2.7 5.5 3.5 2.2.9 4.6 1.3 7 1.3 3.5.1 7-.5 10.3-1.9 2.9-1.5 5.5-3.5 7.6-6 .6 2.1 2 4 3.8 5.3 2.3 1.4 5 2.1 7.7 2 1.9 0 3.9-.1 5.8-.4 1.9-.3 3.6-.6 5-.9l-.7-11.9c-.5.2-.8.4-1.2.4zm-22.4-7.2c.1 2-.6 4-1.9 5.5-1.7 1.7-4 2.6-6.4 2.5-3.1.1-5.7-2.3-5.8-5.4v-.4c-.1-1.2.3-2.4 1.1-3.4.7-.9 1.6-1.6 2.6-2 1.1-.5 2.3-.8 3.4-.9 1.1-.2 2.3-.3 3.4-.3.6 0 1.3 0 1.9-.1.6 0 1.1 0 1.7.1v4.4zm83.7-30.4c-1.7-2.7-4-5-6.8-6.6-3-1.8-6.3-2.6-9.8-2.5-3.2-.1-6.5.7-9.2 2.3-2.5 1.6-4.7 3.6-6.5 5.9v-27.5h-20.1v78h19.6v-2.4c1.6 1.4 3.5 2.5 5.5 3.1 2.2.8 4.5 1.1 6.9 1.2 4.2.1 8.3-.9 11.9-2.9 3.2-1.8 5.9-4.4 8-7.4 2.1-3 3.6-6.4 4.4-10 .9-3.5 1.4-7.1 1.4-10.6 0-3.7-.4-7.4-1.3-11-.8-3.6-2.1-6.7-4-9.6zm-16 27.6c-.3 1.7-.8 3.3-1.5 4.8-.7 1.4-1.7 2.7-2.9 3.7-1.3 1-3 1.5-4.7 1.5-2.5 0-4.4-.5-5.5-1.6-1.2-1.1-1.8-2.7-1.7-4.4v-15.9c0-1.1.1-2.2.4-3.2.4-1 1.1-1.9 1.9-2.7.7-.7 1.5-1.2 2.3-1.6 1-.5 2.1-.7 3.2-.7 1.7-.1 3.4.5 4.7 1.6 1.2 1.1 2.1 2.4 2.7 3.9.6 1.6 1.1 3.3 1.3 5 .2 1.6.3 3.2.3 4.9-.1 1.5-.2 3.1-.5 4.7zm30.1 21.9h20v-78h-20v78zm83-42.2c-1-3.1-2.5-5.9-4.6-8.3-2.3-2.5-5.1-4.6-8.2-5.9-3.8-1.6-8-2.4-12.1-2.3-4.3-.1-8.6.7-12.6 2.4-3.5 1.5-6.6 3.8-9.1 6.6-2.5 2.9-4.4 6.2-5.6 9.8-1.3 3.8-1.9 7.8-1.9 11.9-.1 4.5.8 9 2.5 13.1 1.5 3.6 3.9 6.8 6.9 9.3 3.1 2.5 6.6 4.4 10.4 5.5 4.3 1.3 8.7 1.9 13.1 1.8 4 0 7.9-.4 11.8-1.1 3.2-.6 6.4-1.5 9.6-2.6l-3.5-13.9c-2.2 1-4.6 1.8-6.9 2.4-2.6.7-5.2 1-7.9 1-5.1 0-9.1-1.1-11.8-3.2-2.7-2-4.2-5.2-4.1-8.6v-.7h35.4c.1-.5.1-1.1.2-1.8 0-.7.1-1.4.1-2.2 0-.7.1-1.4.1-2.1v-1.6c-.3-3.2-.8-6.4-1.8-9.5zm-17.1 5.8h-17.3c0-1.1.1-2.2.4-3.3.3-1.2.8-2.3 1.4-3.3.7-1 1.6-1.9 2.7-2.5 1.3-.7 2.8-1 4.3-.9 2.6-.2 5.1 1 6.7 3 1.5 2 2.1 4.6 1.8 7z" id="runnable"/><path id="logomark" class="st2" d="M196.6 189.9l-84.2 4.4c-6.2.3-11.3-3.9-11.3-9.4v-61.8l104.3 3.3v54.3c.1 4.9-3.8 8.9-8.8 9.2zm-27.5-37.6l-13.9-13.2c-2-1.9-5.1-1.9-7.2-.1-1.8 1.6-2 4.4-.4 6.3.1.1.2.3.4.4l10.7 9.9-10.7 10.1c-1.8 1.6-2 4.4-.4 6.3.1.1.2.3.4.4 2.1 1.8 5.2 1.7 7.2-.2l13.9-13.4c1.8-1.7 1.9-4.5.2-6.3 0-.1-.1-.2-.2-.2zm-67.9-37.2c0-5.5 5.1-9.7 11.3-9.4l84.2 4.4c4.9.3 8.8 4.3 8.9 9.2v3.5l-104.3-3.7v-4zm28.7-.3c0 .8.7 1.5 1.6 1.5l3.2.1c.8.1 1.5-.5 1.6-1.3v-3c0-.8-.7-1.5-1.6-1.5l-3.2-.2c-.8-.1-1.5.5-1.6 1.3v3.1zm-10.8-.4c.1.9.8 1.5 1.6 1.5l3.3.1c.8.1 1.5-.5 1.6-1.3v-3c-.1-.9-.8-1.5-1.6-1.5l-3.3-.2c-.8-.1-1.5.5-1.6 1.3v3.1zm-11.1-.5c.1.9.8 1.6 1.7 1.6l3.3.1c.8.1 1.6-.5 1.7-1.3v-3c-.1-.9-.8-1.5-1.7-1.6l-3.3-.2c-.8-.1-1.6.5-1.7 1.3v3.1z"/></svg>
