<svg xmlns="http://www.w3.org/2000/svg" viewBox="-25 15 110 30"><path fill="#394D54" d="M1.9 25.8h4v4.1h2c.9 0 1.9-.2 2.7-.4.4-.1.9-.3 1.4-.6-.5-.7-.8-1.7-.9-2.5 0-1.4.2-2.9 1-4l.4-.5.5.4c1.3 1 2.3 2.4 2.5 4 1.5-.4 3.2-.3 4.6.4l.5.3-.3.6c-1.2 2.2-3.5 2.8-5.8 2.7-3.5 8.6-10.9 12.6-20 12.6-4.7 0-9-1.8-11.4-5.9v-.1l-.3-.7c-.8-1.8-1.2-3.9-.9-5.9l.1-.6h3.3v-4.1h4v-3.8h7.9v-4H2v7.9h-.1z"/><path fill="#00AADA" d="M14.8 27.3c.3-2.1-1.3-3.7-2.2-4.5-1.2 1.3-1.3 4.6.4 6.1-.9.8-3 1.7-5.1 1.7h-25.3c-.2 2.2.2 4.2 1 5.9l.3.5.6.9c1 .1 2 .1 2.9.1 1.8 0 3.1-.2 4.2-.6.2-.1.3 0 .4.2.1.2 0 .3-.2.4-.1 0-.3.1-.4.1-.8.2-1.8.4-2.9.5h-3.4c2.1 2.4 5.4 3.8 9.6 3.8 8.8 0 16.2-3.9 19.6-12.7 2.3.2 4.6-.3 5.6-2.3-1.8-1.1-3.9-.8-5.1-.1z"/><path fill="#24B8EB" d="M14.8 27.3c.3-2.1-1.3-3.7-2.2-4.5-1.2 1.3-1.3 4.6.4 6.1-.9.8-3 1.7-5.1 1.7H-16c-.1 3.3 1.2 5.9 3.3 7.4 1.8 0 3.1-.2 4.2-.6.2-.1.3 0 .4.2.1.2 0 .3-.2.4-.1 0-.3.1-.4.1-.8.2-1.8.4-3 .5 3 1.6 7.3 1.6 12.2-.4C6 36.1 11.3 32 14.8 27.3c.1 0 .1 0 0 0z"/><path fill="#008BB8" d="M-17.4 33.1c.2 1.2.5 2.3 1 3.2l.3.5.6.9c1 .1 2 .1 2.9.1 1.8 0 3.1-.2 4.2-.6.2-.1.3 0 .4.2.1.2 0 .3-.2.4-.1 0-.3.1-.4.1-.8.2-1.8.4-3 .5H-15c2.1 2.4 5.4 3.8 9.6 3.8 7.5 0 14-2.8 17.9-9.2h-29.9z"/><path fill="#039BC6" d="M-15.8 33.1c.4 2.1 1.6 3.7 3.1 4.7 1.8 0 3.1-.2 4.2-.6.2-.1.3 0 .4.2.1.2 0 .3-.2.4-.1 0-.3.1-.4.1-.8.2-1.9.4-3 .5 3 1.6 7.3 1.5 12.2-.4 3-1.2 5.9-2.8 8.5-4.9h-24.8z"/><path fill="#00ACD3" d="M-11.2 26.7h.3v2.8h-.3v-2.8zm-.5 0h.3v2.8h-.3v-2.8zm-.5 0h.3v2.8h-.3v-2.8zm-.5 0h.3v2.8h-.3v-2.8zm-.5 0h.3v2.8h-.3v-2.8zm-.6 0h.3v2.8h-.3v-2.8zm-.2-.3h3.5v3.5H-14v-3.5zM-7.2 22.8h.3v2.8h-.3v-2.8zm-.5 0h.3v2.8h-.3v-2.8zm-.5 0h.3v2.8h-.3v-2.8zm-.6 0h.3v2.8h-.3v-2.8zm-.5 0h.3v2.8h-.3v-2.8zm-.5 0h.3v2.8h-.3v-2.8zm-.3-.3h3.5V26h-3.5v-3.5z"/><path fill="#20C2EF" d="M-7.2 26.7h.3v2.8h-.3v-2.8zm-.5 0h.3v2.8h-.3v-2.8zm-.5 0h.3v2.8h-.3v-2.8zm-.6 0h.3v2.8h-.3v-2.8zm-.5 0h.3v2.8h-.3v-2.8zm-.5 0h.3v2.8h-.3v-2.8zm-.3-.3h3.5v3.5h-3.5v-3.5z"/><path fill="#00ACD3" d="M-3.2 26.7h.2v2.8h-.3v-2.8h.1zm-.5 0h.3v2.8h-.3v-2.8zm-.6 0h.3v2.8h-.3v-2.8zm-.5 0h.3v2.8h-.3v-2.8zm-.5 0h.3v2.8h-.3v-2.8zm-.5 0h.3v2.8h-.3v-2.8zm-.3-.3h3.5v3.5h-3.5v-3.5z"/><path fill="#20C2EF" d="M-3.2 22.8h.2v2.8h-.3v-2.8h.1zm-.5 0h.3v2.8h-.3v-2.8zm-.6 0h.3v2.8h-.3v-2.8zm-.5 0h.3v2.8h-.3v-2.8zm-.5 0h.3v2.8h-.3v-2.8zm-.5 0h.3v2.8h-.3v-2.8zm-.3-.3h3.5V26h-3.5v-3.5zM.8 26.7h.3v2.8H.8v-2.8zm-.6 0h.3v2.8H.2v-2.8zm-.5 0H0v2.8h-.3v-2.8zm-.5 0h.3v2.8h-.3v-2.8zm-.5 0h.3v2.8h-.3v-2.8zm-.5 0h.3v2.8h-.3v-2.8zm-.4-.3h3.5v3.5h-3.5v-3.5z"/><path fill="#00ACD3" d="M.8 22.8h.3v2.8H.8v-2.8zm-.6 0h.3v2.8H.2v-2.8zm-.5 0H0v2.8h-.3v-2.8zm-.5 0h.3v2.8h-.3v-2.8zm-.5 0h.3v2.8h-.3v-2.8zm-.5 0h.3v2.8h-.3v-2.8zm-.4-.3h3.5V26h-3.5v-3.5z"/><path fill="#20C2EF" d="M.8 18.8h.3v2.8H.8v-2.8zm-.6 0h.3v2.8H.2v-2.8zm-.5 0H0v2.8h-.3v-2.8zm-.5 0h.3v2.8h-.3v-2.8zm-.5 0h.3v2.8h-.3v-2.8zm-.5 0h.3v2.8h-.3v-2.8zm-.4-.3h3.5V22h-3.5v-3.5z"/><path fill="#00ACD3" d="M4.7 26.7H5v2.8h-.3v-2.8zm-.5 0h.3v2.8h-.3v-2.8zm-.5 0H4v2.8h-.3v-2.8zm-.5 0h.3v2.8h-.3v-2.8zm-.5 0H3v2.8h-.3v-2.8zm-.6 0h.3v2.8h-.3v-2.8zm-.3-.3h3.5v3.5H1.8v-3.5z"/><path fill="#D4EDF1" d="M-6.9 35.4c.5 0 .9.4.9.9s-.4.9-.9.9-.9-.4-.9-.9.4-.9.9-.9"/><path fill="#394D54" d="M-6.9 35.7h.2c-.1 0-.1.1-.1.2s.1.3.3.3c.1 0 .2-.1.2-.1v.2c0 .4-.3.6-.6.6-.4 0-.6-.3-.6-.6 0-.2.3-.6.6-.6M-23.6 33.4h44c-.9-.2-3-.5-2.7-1.8-1.8 2-6 1.5-7 .4-1.2 1.7-8.1 1-8.6-.3-1.5 1.8-6.1 1.8-7.5 0-.5 1.4-7.3 2-8.6.3-1 1-5.2 1.6-7-.4.4 1.3-1.7 1.6-2.6 1.8"/><path fill="#BFDBE0" d="M-4.4 42.2c-2.3-1.2-3.7-2.6-4.4-4.3-.8.2-1.9.4-3.1.5h-3.4c2.2 2.2 4.8 3.8 9.7 3.9.5 0 .9 0 1.2-.1z"/><path fill="#D4EDF1" d="M-7.8 39.5c-.3-.4-.6-1-.8-1.6-.8.2-1.9.4-3.1.5.8.5 1.9.9 3.9 1.1z"/><path fill="#394D54" d="M66.8 35.3c1.4-1.2 2.7-2.3 4.1-3.5.4-.4.9-.8 1.5-1.3-.4-.4-.9-.8-1.5-1-1-.4-2.1-.3-3 .3-1.3.7-1.8 1.9-1.8 3.3 0 .5.2 1.2.5 1.6 0 .3.1.4.2.6m1.5 1.1c.6.2 1.5.2 2.1.1.3-.1 1.3-.5 1.6-.5.2.1.4.2.5.4.2.5.1.9-.3 1.3l-.1.1c-1.8 1-3.6.8-5.3-.1-.8-.4-1.5-1.2-1.9-1.9l-.1-.2c-1.2-1.9-.9-4 .3-5.8.4-.6 1-1.2 1.7-1.5l.2-.1c1.7-.9 3.3-.8 5 0 .9.4 1.7 1.2 2.1 2l.1.1c.3.6-.1 1.2-.6 1.6-.5.4-1.2.9-1.7 1.5-1 .9-2.3 1.9-3.6 3zm13.1-8.7h.2c.5 0 .9.4.9.9 0 .7-.7.9-1.4.9-.8 0-1.6.5-2.2 1-.7.7-1 1.6-1 2.6v4.4c0 .5-.3.9-.8.9H77c-.5 0-.8-.4-.8-.9v-4.7c0-1.8.8-3.2 2.3-4.3.8-.5 1.8-.8 2.9-.8zm-22.8 3.1l2.1-2.1c.2-.2.9-1 1.3-1h.3c.4.1.7.3.7.8v.1c0 .3-.3.6-.5.8-.4.4-.8.8-1.3 1.4L59 33l2.8 2.8c.2.3.5.5.7.8l.3.3c.1.1.1.3.1.4v.2c-.1.4-.4.7-.8.7H62c-.3 0-.6-.3-.8-.5l-1.3-1.3-1.4-1.4v2.2c0 .5-.3.9-.8.9h-.1c-.5 0-.8-.4-.8-.9V25.1c0-.5.3-.9.8-.9h.1c.5 0 .8.4.8.9.1 0 .1 5.7.1 5.7zm-5.9-1.2c-.3-.1-.8-.2-1-.2-1.6-.1-2.6.8-3.2 2.2-.3.4-.5.9-.5 1.4 0 1.6.8 2.6 2.2 3.3.5.2 1.2.3 1.8.3.5 0 1.2-.3 1.6-.5h.4c.4.1.7.3.7.8 0 1.2-2 1.4-2.8 1.5-2.7.2-4.8-1.4-5.5-4-.2-.4-.2-.8-.2-1.4v-.3c0-2 .9-3.6 2.7-4.6.8-.4 1.7-.7 2.6-.7h.3c.9 0 1.9.3 2.7.8h.1v.1c.1.1.2.3.2.5v.2c0 .4-.3.7-.7.8H54c-.5.1-1.1-.1-1.3-.2zM36 33c0 1.4.7 2.4 1.9 3.1.5.3 1.2.5 1.8.5 1.4 0 2.4-.7 3.1-1.9.3-.5.5-1.2.5-1.8 0-1.3-.6-2.3-1.7-3-.6-.4-1.3-.6-1.9-.6-1.6 0-2.6.7-3.2 2.2-.4.5-.5 1-.5 1.5zm3.5-5.4h.2c2.1 0 3.8 1 4.7 2.8.4.7.6 1.6.6 2.4v.3c0 2-.9 3.6-2.7 4.6-.8.4-1.7.7-2.6.7h-.3c-2 0-3.6-.9-4.6-2.7-.4-.8-.7-1.7-.7-2.6v-.3c0-2 .9-3.6 2.7-4.6.9-.4 1.7-.6 2.7-.6zM24 33c0 1.5.7 2.5 2 3.2.5.3 1 .4 1.7.4 1.4 0 2.4-.6 3.1-1.9.3-.5.5-1.2.5-1.8 0-1.3-.6-2.2-1.6-2.9-.6-.4-1.3-.6-2-.6-1.6 0-2.6.7-3.2 2.2-.4.4-.5.9-.5 1.4zm7.3-4.1V25c0-.5.3-.9.8-.9h.1c.5 0 .8.4.8.9v8.2c0 2-.9 3.6-2.7 4.6-.8.4-1.7.7-2.6.7h-.3c-2 0-3.6-.9-4.6-2.7-.4-.8-.7-1.7-.7-2.6v-.4c0-2 .9-3.6 2.7-4.6.8-.4 1.7-.7 2.6-.7h.3c1.5.1 2.6.6 3.6 1.4z"/></svg>