<svg id="Layer_1" data-name="Layer 1" xmlns="http://www.w3.org/2000/svg" viewBox="0 0 45 38.1984"><defs><style>.cls-1{fill:#cbadd2}</style></defs><title>runnable-icon-pink</title><path id="logomark" class="cls-1" d="M41.152 36.301L4.86 38.191C2.19 38.329 0 36.519 0 34.145V7.492l45 1.406v23.425a4.055 4.055 0 0 1-3.848 3.978zM29.29 20.075l-6.012-5.681a2.305 2.305 0 0 0-3.086-.042 1.92 1.92 0 0 0 0 2.874l4.609 4.28-4.609 4.344a1.92 1.92 0 0 0 0 2.874 2.307 2.307 0 0 0 3.086-.084l6.012-5.765a1.91 1.91 0 0 0 .1-2.7q-.048-.052-.1-.1zM0 4.053C0 1.68 2.191-.13 4.859.007l36.293 1.89A4.055 4.055 0 0 1 45 5.876v1.511L0 5.773v-1.72zm12.374-.122a.692.692 0 0 0 .689.651l1.37.056a.62.62 0 0 0 .678-.557l.003-.034V2.81a.69.69 0 0 0-.681-.65l-1.37-.065a.623.623 0 0 0-.686.552l-.003.039V3.93zm-4.66-.197a.707.707 0 0 0 .707.66l1.405.057a.634.634 0 0 0 .696-.565l.002-.033V2.6a.705.705 0 0 0-.698-.66L8.42 1.873a.636.636 0 0 0-.704.56l-.003.039v1.262h.001zm-4.783-.202a.721.721 0 0 0 .725.67l1.442.058a.647.647 0 0 0 .715-.573l.002-.033v-1.27a.72.72 0 0 0-.717-.668l-1.442-.068a.649.649 0 0 0-.722.567l-.003.038v1.28z"/></svg>